<svg width="111" height="52" viewBox="0 0 111 52" fill="none" xmlns="http://www.w3.org/2000/svg">
<g clip-path="url(#clip0_211_1138)">
<path d="M96.9418 32.1724H101.891C103.094 32.1724 104.043 32.4711 104.731 33.0632C105.426 33.6538 105.775 34.4955 105.775 35.5704C105.775 36.6453 105.397 37.5443 104.644 38.1991C103.92 38.8265 102.984 39.1321 101.833 39.1321H96.9418V32.1724ZM96.9418 51.4432V43.0717H102.348C104.927 43.0717 107 42.4169 108.558 41.106C110.188 39.731 111 37.8935 111 35.584C111 33.2746 110.297 31.5163 108.877 30.1903C107.465 28.8863 105.493 28.2383 102.979 28.2383H91.8914V51.4419H96.9418V51.4432ZM69.486 42.3964C69.486 45.3238 70.2686 47.6183 71.8406 49.292C73.5292 51.094 76.0503 51.9998 79.4052 51.9998C82.7602 51.9998 85.1301 51.1663 86.8034 49.5062C88.5142 47.8106 89.3689 45.4452 89.3689 42.3964V28.241H84.267V42.732C84.267 46.1368 82.6589 47.8406 79.4482 47.8406C76.2376 47.8406 74.5864 46.1382 74.5864 42.732V28.241H69.4846V42.3964H69.486ZM60.7614 34.0399C61.8631 35.4654 62.4139 37.4024 62.4139 39.8605C62.4139 42.5397 61.7479 44.5981 60.4215 46.0372C59.3267 47.2336 57.8782 47.8392 56.0952 47.8392C54.1028 47.8392 52.5446 47.1053 51.4207 45.6444C50.3413 44.2271 49.7974 42.3037 49.7974 39.8592C49.7974 37.4147 50.3413 35.464 51.4207 34.0385C52.5516 32.5639 54.0875 31.83 56.037 31.83C57.9864 31.83 59.6237 32.5639 60.7614 34.0385M47.6301 30.9338C45.6085 33.0714 44.6012 36.056 44.6012 39.8674C44.6012 44.0416 45.8111 47.1913 48.2239 49.3289C50.2317 51.1104 52.854 51.9998 56.0938 51.9998C59.7027 51.9998 62.5291 50.9167 64.5645 48.7505C66.5931 46.6061 67.6073 43.6501 67.6073 39.866C67.6073 36.082 66.5931 33.0904 64.5645 30.9324C62.536 28.7594 59.7458 27.6831 56.1882 27.6831C52.6306 27.6831 49.667 28.7662 47.6301 30.9324M29.1888 32.1724H34.1089C35.4645 32.1724 36.4718 32.407 37.1378 32.8845C37.8122 33.3619 38.1452 34.1531 38.1452 35.2567C38.1452 37.4079 36.7979 38.4842 34.1089 38.4842H29.1888V32.1724ZM29.1888 51.4432V42.3951H34.2615L38.5586 51.4432H44.2765L39.2191 41.5684C41.9871 40.308 43.3719 38.2345 43.3719 35.3494C43.3719 33.3196 42.8432 31.7236 41.7846 30.5409C40.429 29.0022 38.3061 28.2397 35.4229 28.2397H24.1037V51.4432H29.1902H29.1888ZM19.3043 30.5696C17.6157 28.6462 15.0072 27.6845 11.4788 27.6845C7.95038 27.6845 5.05189 28.7962 3.0081 31.0184C1.00039 33.2064 0 36.2197 0 40.0665C0 44.3335 1.20296 47.5187 3.62276 49.6126C5.44871 51.2018 7.8033 51.9998 10.7018 51.9998C13.8472 51.9998 16.2157 51.0313 17.803 49.0997L18.3386 51.4432H21.5992V39.1676H12.8385V42.8016H16.6278V43.8697C16.6278 45.0592 16.113 46.0359 15.0849 46.7834C14.1067 47.4887 12.8607 47.8379 11.3525 47.8379C9.38921 47.8379 7.87406 47.1749 6.81679 45.8504C5.73731 44.5176 5.19341 42.5942 5.19341 40.0802C5.19341 37.5661 5.70818 35.4845 6.73631 34.0535C7.80885 32.5721 9.32261 31.8314 11.2943 31.8314C14.0332 31.8314 15.8522 33.235 16.7513 36.056L21.534 34.9088C21.0262 33.1205 20.2797 31.6677 19.3015 30.5696" fill="white"/>
<path d="M61.7687 23.2104L66.1602 6.82466L70.3199 23.2104H75.8491L81.5795 0H76.3833L72.8174 16.7418L68.7895 0H63.739L59.5723 16.7418L56.1008 0H50.7742L56.1868 23.2104H61.7659H61.7687ZM28.1163 23.2254V6.68961L33.7107 23.2254H37.8843L43.4496 6.68961V23.2254H48.2822V0.0218258H41.6014L35.9127 17.256L30.1518 0.0218258H23.3183V23.2254H28.1149H28.1163ZM5.85525 3.95456H11.2318C12.2821 3.95456 13.08 4.07597 13.6377 4.31742C14.5438 4.70892 14.9933 5.44963 14.9933 6.53956C14.9933 7.44397 14.6964 8.10693 14.1095 8.52707C13.5364 8.94722 12.5805 9.15456 11.2332 9.15456H5.85663V3.95456H5.85525ZM5.85525 13.0668H11.1735C12.5791 13.0668 13.6294 13.2455 14.3259 13.5934C15.232 14.049 15.6815 14.9111 15.6815 16.1579C15.6815 17.2056 15.3985 17.9599 14.8268 18.4305C14.1317 19.0007 12.9135 19.2858 11.1749 19.2858H5.85663V13.0668H5.85525ZM11.0792 23.2254C17.5713 23.2254 20.818 20.8955 20.818 16.2507C20.818 13.6643 19.5568 11.876 17.0288 10.8856C19.0573 9.92393 20.0716 8.2638 20.0716 5.91343C20.0716 3.8468 19.2377 2.30126 17.5782 1.26863C16.2532 0.435152 14.4564 0.0218258 12.1809 0.0218258H0.84082V23.2254H11.0806H11.0792Z" fill="white"/>
</g>
<defs>
<clipPath id="clip0_211_1138">
<rect width="111" height="52" fill="white"/>
</clipPath>
</defs>
</svg>
