<svg width="518" height="505" viewBox="0 0 518 505" fill="none" xmlns="http://www.w3.org/2000/svg">
<path d="M481.154 2.06091H84.7137C68.5001 2.06091 54.4199 13.2687 50.7627 29.1058L4.37718 231.699C1.20761 245.404 1.20761 259.657 4.37718 273.362L50.7627 475.955C54.4199 491.792 68.5001 503 84.7137 503H382.41C398.624 503 412.704 491.792 416.361 475.955L449.459 331.472C453.664 313.199 439.767 295.778 420.993 295.778H352.909C334.257 295.778 320.359 278.479 324.382 260.266L335.11 211.963C338.097 198.623 349.922 189.06 363.636 189.06H458.724C472.316 189.06 484.141 179.68 487.189 166.401L515.105 44.5165C520.104 22.7709 503.524 2 481.154 2V2.06091ZM152.128 91.175C152.128 92.1496 151.884 93.1241 151.397 93.916C150.909 94.7688 150.239 95.4388 149.385 95.9261L126.223 109.266C125.37 109.753 124.394 109.997 123.48 109.997C122.566 109.997 121.591 109.753 120.737 109.266L97.5749 95.9261C96.7215 95.4388 96.051 94.7078 95.5634 93.916C95.0758 93.0632 94.832 92.1496 94.832 91.175V64.4347C94.832 63.4601 95.0758 62.4855 95.5634 61.6936C96.051 60.9018 96.7215 60.1708 97.5749 59.6835L117.994 47.9275L120.737 46.3438C121.591 45.8565 122.566 45.6129 123.48 45.6129C124.394 45.6129 125.37 45.8565 126.223 46.3438L128.966 47.9275L149.385 59.6835C150.239 60.1708 150.909 60.9018 151.397 61.6936C151.884 62.4855 152.128 63.4601 152.128 64.4347V91.175Z" fill="white" stroke="white" stroke-opacity="0.6" stroke-width="3" stroke-miterlimit="10"/>
<path d="M204.628 433.045C202.955 431.777 200.622 431.117 197.681 431.117C195.095 431.117 193.015 431.726 191.342 432.893C189.669 434.06 188.857 435.633 188.806 437.611H194.435C194.588 436.14 195.754 435.379 197.985 435.379C200.47 435.379 201.687 436.445 201.687 438.626V439.134H196.109C193.269 439.134 191.139 439.844 189.719 441.214C188.299 442.583 187.589 444.207 187.589 446.084C187.589 447.961 188.249 449.686 189.567 451.005C190.886 452.324 192.711 453.035 194.942 453.035C197.529 453.035 199.456 452.274 200.774 450.701H201.839V452.477H207.062V438.931C207.062 436.242 206.251 434.263 204.578 432.995L204.628 433.045ZM201.687 444.156C201.687 445.475 201.231 446.49 200.369 447.302C199.506 448.113 198.391 448.519 197.022 448.519C194.537 448.519 193.32 447.555 193.32 445.628C193.32 443.7 194.638 442.837 197.224 442.837H201.687V444.156ZM149.962 434.009H148.897V431.676H143.42V452.527H149.1V443.395C149.1 439.083 151.23 436.952 155.489 436.952H157.518V431.676H155.591C152.903 431.676 151.027 432.437 150.013 434.009H149.962ZM172.579 431.117C169.384 431.117 166.798 432.081 164.922 434.06C163.045 436.039 162.082 438.677 162.082 441.975C162.082 445.272 163.045 448.012 164.922 449.991C166.849 451.969 169.435 452.984 172.68 452.984C175.419 452.984 177.65 452.375 179.273 451.158C180.946 449.94 181.961 448.266 182.417 446.084H176.636C176.078 447.555 174.81 448.266 172.731 448.266C169.536 448.266 167.812 446.389 167.66 442.685H182.569V440.96C182.518 438.017 181.606 435.684 179.831 433.806C178.056 431.98 175.622 431.067 172.528 431.067L172.579 431.117ZM167.914 438.931C168.522 436.546 170.043 435.379 172.528 435.379C175.013 435.379 176.433 436.546 176.839 438.931H167.914ZM127.548 448.316C125.874 448.316 124.657 447.708 123.897 446.541C123.136 445.374 122.68 443.852 122.68 442.025C122.68 440.199 123.085 438.677 123.846 437.561C124.607 436.445 125.874 435.836 127.548 435.836C129.526 435.836 130.793 436.648 131.25 438.271H136.879C136.625 436.089 135.611 434.364 133.937 433.045C132.264 431.726 130.083 431.067 127.497 431.067C124.302 431.067 121.716 432.081 119.84 434.06C117.964 436.039 117 438.728 117 442.025C117 445.323 117.964 448.012 119.84 449.991C121.716 451.969 124.302 452.984 127.497 452.984C130.083 452.984 132.264 452.274 133.988 450.904C135.712 449.534 136.726 447.708 137.031 445.425H131.453C131.098 447.302 129.779 448.266 127.548 448.266V448.316ZM291.902 452.527H297.581L301.232 431.676H295.553L291.902 452.527ZM221.16 425.79H215.48V431.625H212.438V436.394H215.48V446.033C215.48 448.418 216.19 450.092 217.661 451.056C219.132 452.02 221.16 452.477 223.746 452.477H225.724V447.657H223.797C222.022 447.657 221.109 446.896 221.109 445.323V436.343H225.673V431.574H221.109V425.79H221.16ZM350.523 431.625L350.168 433.806H349.103C348.647 433.045 347.937 432.386 346.973 431.879C346.01 431.371 344.894 431.067 343.525 431.067C340.381 431.067 337.846 432.284 335.969 434.72C334.093 437.155 333.129 440.047 333.129 443.395C333.129 445.932 333.789 448.012 335.158 449.686C336.527 451.36 338.403 452.121 340.837 452.121C343.272 452.121 344.996 451.36 346.01 449.788H347.075L346.872 450.802C346.162 454.607 344.337 456.535 341.446 456.535C340.33 456.535 339.367 456.332 338.657 455.876C337.947 455.419 337.541 454.81 337.44 453.948H331.862C331.912 456.231 332.774 457.956 334.499 459.174C336.223 460.391 338.403 461 341.091 461C344.134 461 346.669 460.138 348.698 458.463C350.726 456.738 351.994 454.354 352.552 451.31L356 431.574H350.523V431.625ZM347.227 445.374C346.213 446.744 344.844 447.454 343.119 447.454C341.801 447.454 340.787 447.048 340.026 446.236C339.265 445.425 338.86 444.308 338.86 442.939C338.86 440.858 339.418 439.184 340.482 437.865C341.547 436.546 342.866 435.887 344.438 435.887C345.756 435.887 346.821 436.292 347.582 437.155C348.343 438.017 348.748 439.134 348.748 440.554C348.748 442.381 348.241 444.004 347.227 445.374ZM321.06 431.117C318.525 431.117 316.547 431.929 315.127 433.502H314.062L314.417 431.625H308.89L305.238 452.477H310.918L312.845 441.417C313.149 439.742 313.758 438.474 314.772 437.51C315.736 436.546 316.902 436.089 318.322 436.089C320.553 436.089 321.669 437.104 321.669 439.134C321.669 439.742 321.618 440.402 321.466 441.061L319.438 452.426H325.117L327.247 440.148C327.399 439.083 327.501 438.22 327.501 437.611C327.501 435.633 326.943 434.06 325.827 432.842C324.711 431.625 323.139 431.016 321.06 431.016V431.117ZM296.161 428.073H301.892L302.804 423H297.023L296.111 428.073H296.161ZM269.082 455.064H229.477V458.768H289.975V455.064H269.082Z" fill="#1D1D1B"/>
</svg>
