<svg width="344" height="39" viewBox="0 0 344 39" fill="none" xmlns="http://www.w3.org/2000/svg">
<g clip-path="url(#clip0_211_1146)">
<path d="M25.9449 34.3502H22.1128L5.26426 13.9248V34.3502H0V4.58398H3.83699L20.6856 24.9788V4.58398H25.9449V34.3502Z" fill="white"/>
<path d="M51.9339 9.72305V16.9122H66.5976V22.0619H51.9339V29.2001H69.6379V34.3498H46.6648V4.59375H69.6379V9.69246L51.9339 9.72305Z" fill="white"/>
<path d="M128.928 4.58398L119.871 34.3502H114.323L107.226 12.5176L100.085 34.3502H94.5368L85.4795 4.58398H90.7437L97.3913 26.3759L104.489 4.58398H109.958L117.065 26.3962L123.664 4.58398H128.928Z" fill="white"/>
<path d="M165.724 25.3918C165.739 23.2045 164.052 21.425 161.955 21.4097C161.936 21.4097 161.911 21.4097 161.892 21.4097H150.713V29.3739H161.892C164.008 29.3739 165.724 27.5842 165.724 25.3765V25.3918ZM161.037 9.58581H150.713V16.6067H161.037C162.894 16.6781 164.458 15.1689 164.531 13.2314C164.605 11.2939 163.153 9.6623 161.296 9.58581C161.208 9.58581 161.125 9.58581 161.037 9.58581ZM170.988 25.8405C170.993 30.5262 167.361 34.3349 162.869 34.3502H145.61V4.58398H162.097C166.374 4.58398 169.84 8.19387 169.845 12.6552V12.6909C169.845 15.796 167.645 17.9273 166.462 18.6921C168.012 19.4569 170.988 21.7972 170.988 25.8405Z" fill="white"/>
<path d="M265.192 34.3502H258.912L250.915 23.541L242.957 34.3502H236.681L247.777 19.3294L236.882 4.58398H243.163L250.915 15.0516L258.706 4.58398H264.948L254.058 19.3294L265.192 34.3502Z" fill="white"/>
<path d="M287.584 9.72305V16.9122H302.248V22.0619H287.584V29.2001H305.293V34.3498H282.32V4.59375H305.293V9.69246L287.584 9.72305Z" fill="white"/>
<path d="M344 26.2278C344 32.8255 338.042 34.9975 331.883 34.9975C327.782 35.0332 323.745 33.9013 320.216 31.7191L322.865 27.3342C325.763 28.9964 329.028 30.0569 332.088 30.0569C335.999 30.0569 338.535 28.9964 338.535 26.5286C338.535 23.8008 335.065 22.781 331.272 21.5471C326.335 19.9716 320.787 18.1871 320.787 12.1859C320.753 9.86601 321.824 7.68376 323.642 6.353C325.68 4.82339 328.701 4.0127 332.44 4.0127C336.311 4.0127 339.699 5.03244 343.453 7.29116L340.882 11.5486C337.949 9.84562 335.212 8.90745 332.196 8.90745C328.198 8.90745 326.277 10.1821 326.277 11.9667C326.277 14.7761 329.825 15.755 333.745 17.0297C338.535 18.6103 344 20.5682 344 26.2278Z" fill="white"/>
<path d="M221.113 9.75382C220.835 9.25415 220.439 8.82586 219.94 8.52503L208.112 1.41744L206.523 0.448686C206.025 0.147862 205.472 0 204.92 0C204.368 0 203.815 0.147862 203.317 0.448686L201.728 1.41744L189.899 8.52503C189.406 8.82586 189.005 9.25415 188.726 9.75382C188.448 10.2535 188.296 10.8296 188.296 11.4262V27.584C188.296 28.1703 188.443 28.7465 188.726 29.2564C189.01 29.7662 189.415 30.1894 189.899 30.4852L203.317 38.5564C203.81 38.8521 204.368 39.0051 204.92 39.0051C205.472 39.0051 206.025 38.8572 206.523 38.5564L219.94 30.4852C220.429 30.1894 220.83 29.7662 221.113 29.2564C221.397 28.7465 221.544 28.1703 221.544 27.584V11.4262C221.544 10.8296 221.387 10.2535 221.113 9.75382ZM218.293 22.8167C218.293 23.7192 217.594 24.4483 216.729 24.4483C216.455 24.4483 216.186 24.3718 215.947 24.229L206.538 18.544C206.034 18.2585 205.477 18.1157 204.92 18.1106C204.363 18.1106 203.805 18.2585 203.302 18.544L193.893 24.229C193.653 24.3718 193.384 24.4483 193.111 24.4483C192.246 24.4483 191.547 23.7192 191.547 22.8167V12.4051C191.547 11.8239 191.845 11.2834 192.329 10.9928L203.341 4.36449L204.167 3.85462C204.402 3.71696 204.661 3.64048 204.92 3.63538C205.179 3.63538 205.438 3.71186 205.673 3.85462L206.499 4.36449L217.511 10.9928C217.995 11.2834 218.293 11.8239 218.293 12.4051V22.8167Z" fill="#FF6F61"/>
</g>
<defs>
<clipPath id="clip0_211_1146">
<rect width="344" height="39" fill="white"/>
</clipPath>
</defs>
</svg>
