<svg width="338" height="75" viewBox="0 0 338 75" fill="none" xmlns="http://www.w3.org/2000/svg">
<g clip-path="url(#clip0_211_683)">
<path d="M279.395 29.4588H272.608L272.535 29.638L266.151 48.0441L259.361 29.638L259.285 29.4588H251.874L252.02 29.8571L262.608 55.9087C261.759 58.2298 260.395 60.183 259.066 61.4895C257.368 63.0829 255.009 63.8066 252.427 63.375V68.9173C256.595 69.6038 260.321 67.9374 262.792 65.6562C266.259 62.4323 268.472 58.2298 272.164 48.4106L279.246 29.8585L279.395 29.4601V29.4588ZM131.229 56.8143H137.981V17.0663H131.229V56.8156V56.8143ZM144.66 56.8143H151.409V17.0663H144.66V56.8156V56.8143ZM315.883 28.8812C307.285 28.8812 302.528 35.7274 302.528 43.4831C302.528 51.7447 307.767 57.4331 316.549 57.4331C319.822 57.4424 323.06 56.7878 326.065 55.5131L325.069 50.9454C323.077 51.7049 320.789 52.2493 317.431 52.2493C312.711 52.2493 309.279 50.2523 309.094 44.641L327.467 44.6051C327.614 43.989 327.614 43.0834 327.614 41.8871C327.614 36.3448 324.887 28.8812 315.883 28.8812ZM321.307 39.9657H309.129C309.466 36.9582 310.829 33.5883 315.477 33.5883C320.529 33.5883 321.345 37.2477 321.308 39.9657H321.307ZM112.784 28.6966C104.223 28.6966 98.7284 34.4952 98.7284 43.0463C98.7284 51.5974 104.224 57.4331 112.784 57.4331C121.343 57.4331 126.804 51.6332 126.804 43.0463C126.804 34.4593 121.343 28.6966 112.784 28.6966ZM112.746 52.1046C108.54 52.1046 105.405 48.481 105.405 43.0104C105.405 37.5398 108.54 33.9149 112.746 33.9149C116.952 33.9149 120.125 37.5013 120.125 43.0104C120.125 48.5195 116.989 52.1046 112.746 52.1046ZM94.1506 45.4005C92.8973 41.595 91.3492 39.6378 88.9129 38.5171C92.2334 37.2477 95.2214 34.3491 95.2214 29.3127C95.2214 26.2322 94.0776 23.55 91.9766 21.7761C89.4672 19.6356 85.8507 18.5136 80.3548 18.5136H74.8954C73.0864 18.5136 71.3897 18.6225 69.9511 18.6225V56.7028H76.7409V41.0492H80.0249C84.304 41.0492 86.1116 43.114 87.5515 47.6073C88.8048 51.3756 89.2104 54.4933 89.6173 56.74L96.8127 56.7041C96.2935 54.095 95.5567 49.7451 94.1533 45.3991L94.1506 45.4005ZM80.686 36.0155H76.7382V24.0612C77.2168 24.0612 77.8455 23.9882 78.8054 23.9882H81.0538C85.9237 24.0254 88.5073 26.053 88.506 29.9288C88.506 33.66 85.3342 36.0168 80.6847 36.0168L80.686 36.0155ZM294.445 34.1313C297.064 34.1313 298.8 34.4952 299.979 35.0741L301.161 30.2555C299.651 29.5663 297.067 28.8427 294.302 28.8427C284.558 28.8427 279.138 35.183 279.138 43.3702C279.138 51.5575 285.152 57.214 293.23 57.287C296.772 57.287 299.688 56.4558 301.089 55.8012L300.167 51.0543C298.801 51.6332 296.994 52.2121 294.412 52.2121C289.356 52.2121 286.074 48.9524 286.074 43.0821C286.036 37.828 288.729 34.1313 294.447 34.1313H294.445ZM177.493 41.0174H190.742V36.0168H177.493V41.0174ZM167.831 40.3641C165.323 39.5315 163.366 38.4441 163.366 36.5586C163.366 34.9294 164.399 33.7702 166.983 33.733C169.492 33.6972 171.263 34.3146 172.773 35.0011L174.101 30.5795C172.514 29.6726 169.932 28.8055 166.98 28.8055C160.745 28.8055 156.871 32.6123 156.871 37.2119C156.871 40.4013 159.157 43.4088 164.361 45.2212C167.902 46.4893 168.972 47.3577 168.972 49.3852C168.972 51.4128 167.644 52.4312 164.323 52.4312C161.851 52.4312 159.009 51.527 157.461 50.5829L156.136 55.2926C158.053 56.7054 161.079 57.3561 164.25 57.3561C171.262 57.3561 175.433 53.7683 175.468 48.878C175.468 44.7472 172.811 41.992 167.831 40.3628V40.3641ZM214.499 38.5184C217.819 37.249 220.809 34.3504 220.809 29.3141C220.809 26.2335 219.666 23.5514 217.561 21.7774C215.049 19.637 211.437 18.515 205.939 18.515H200.477C198.67 18.515 196.973 18.6239 195.534 18.6239V56.7041H202.324V41.0506H205.608C209.887 41.0506 211.692 43.1153 213.133 47.6086C214.388 51.3769 214.794 54.4946 215.201 56.7413L222.395 56.7054C221.878 54.0963 221.139 49.7464 219.739 45.4005C218.485 41.595 216.937 39.6378 214.5 38.5171L214.499 38.5184ZM206.272 36.0155H202.324V24.0612C202.803 24.0612 203.43 23.9882 204.39 23.9882H206.638C211.508 24.0254 214.091 26.053 214.091 29.9288C214.091 33.8047 210.92 36.0168 206.271 36.0168L206.272 36.0155ZM238.037 28.7697C229.699 28.7697 223.979 34.6757 223.979 43.118C223.979 51.5602 229.626 57.5034 238.037 57.5034C246.448 57.5034 252.057 51.7049 252.057 43.118C252.057 34.6757 246.338 28.7697 238.037 28.7697ZM238.001 52.1776C233.795 52.1776 230.659 48.5859 230.659 43.0808C230.659 37.5757 233.795 33.9879 238.001 33.9879C242.207 33.9879 245.379 37.5744 245.379 43.0808C245.379 48.5872 242.243 52.1776 238.001 52.1776ZM40.1544 1.82329e-06H6.60452C2.95953 -0.0026538 0.00270818 2.89595 4.17739e-06 6.4744V68.5163C-0.00405182 72.0934 2.94601 74.996 6.5883 75C6.59371 75 6.59912 75 6.60452 75H40.1409C43.7926 75 46.744 72.1027 46.744 68.5163V6.48635C46.7481 2.9079 43.798 0.00398525 40.1544 1.82329e-06ZM44.5295 68.5163C44.5295 70.8758 42.5745 72.7932 40.1395 72.7932H6.60452C4.20067 72.7892 2.25379 70.8771 2.24973 68.5163V6.48635C2.25379 4.12683 4.19932 2.21346 6.60317 2.20815H40.1395C42.5745 2.20815 44.5295 4.13082 44.5295 6.48635V68.5163ZM42.7218 15.5805H4.05736V59.4235H42.7218V15.5805ZM22.8731 56.7413H14.2393C15.0897 56.1995 16.4917 55.4015 16.4917 52.4299V39.023C17.8816 38.8876 19.2606 38.6698 20.6234 38.3724V40.3999C21.2129 40.3654 21.801 40.3654 22.3567 40.2911C22.7623 41.016 23.0962 41.7782 23.4275 42.539C22.4946 42.6041 21.5603 42.6532 20.6248 42.6838V52.4312C20.6248 55.4029 22.0646 56.1995 22.8745 56.7413H22.8731ZM32.0978 52.321H24.4617C25.1256 51.6704 26.0855 50.2536 25.7164 47.5024C25.2013 43.8443 23.5775 39.8569 21.3995 37.2836C19.0024 37.8997 16.1605 38.2648 13.1347 38.2648V48.0109C13.1347 51.0211 14.5719 51.7806 15.3844 52.3223H6.75189C7.5996 51.7806 9.00162 51.0211 9.00162 48.0109V22.8649C9.00162 19.8946 7.60095 19.0966 6.75189 18.5522H19.1862C22.4689 18.5522 25.0512 19.062 26.9697 20.3288C29.4046 21.9593 30.7702 24.676 30.735 27.3223C30.735 31.0893 28.4826 34.1725 24.7943 36.0168C24.6456 36.0912 24.5347 36.1257 24.3874 36.2001C27.6349 39.8582 29.2559 45.0021 30.0685 48.6629C30.4741 50.6546 31.3596 51.6691 32.0965 52.321H32.0978ZM40.6952 56.7068H33.0578C33.7229 56.0535 34.718 54.6779 34.3111 51.924C33.7581 48.1198 31.9126 44.0262 29.6277 41.417C29.3695 41.4874 29.1099 41.5618 28.8517 41.6335C28.5191 40.8726 28.1148 40.0746 27.7079 39.3151C32.6143 37.6846 34.0177 34.4965 34.0177 31.7771C34.0177 29.6394 33.2078 27.8641 31.6949 26.7049C31.6192 25.5444 31.288 24.3866 30.7715 23.2964C32.2114 23.5885 33.4282 24.0626 34.4598 24.7119C36.8947 26.3411 38.2603 29.0963 38.2251 31.7068C38.2251 35.3649 36.0849 38.3352 32.5805 40.2193C36.1579 44.1351 37.8546 49.3852 38.6699 53.046C39.1093 55.0404 39.9949 56.0535 40.6979 56.7068H40.6952ZM26.5262 27.3569C26.5262 25.1447 25.6393 23.2964 23.9831 22.1399C22.7271 21.2689 21.1412 20.836 19.001 20.7975H13.1333V36.0155C23.9061 35.8363 26.5249 31.0867 26.5249 27.3569H26.5262ZM20.6234 33.8419C19.4431 34.3146 18.0411 34.6399 16.4917 34.859V27.2852C16.4917 24.2777 15.0897 23.5155 14.2393 22.9724H23.5383C24.3441 23.5368 24.9512 24.3361 25.2716 25.2563H20.6234V33.8432V33.8419ZM4.05736 68.5163C4.06006 69.8959 5.19844 71.0152 6.60317 71.0192H40.1395C41.5794 71.0192 42.7205 69.8946 42.7205 68.5163V61.1974H4.05736V68.5163ZM34.3462 63.0085H39.4013V64.3868C39.0714 64.0602 38.4049 64.0243 37.5937 64.0243H36.1552V65.5818H38.7375L38.5901 66.5246H36.1538V68.2255H37.7803C38.5901 68.2255 39.2905 68.191 39.6596 67.717L39.4392 69.2386H34.3462C34.6423 69.0262 34.8289 68.4074 34.8289 67.863V64.3855C34.8289 63.8796 34.6423 63.2236 34.3462 63.0072V63.0085ZM28.7381 63.6632C29.3289 63.1586 30.1401 62.8638 31.1379 62.8638C32.1357 62.8638 32.6873 63.0471 33.0172 63.2263V64.5701C32.6116 64.1359 32.0235 63.9168 31.0987 63.9168C29.8089 63.9168 29.0707 64.8595 29.0707 66.1289C29.0707 67.3611 29.8089 68.2999 31.0987 68.2999C32.0221 68.2999 32.8685 68.0449 33.2389 67.6121L33.0158 69.0288C32.6846 69.1696 32.0951 69.3555 31.1366 69.3555C29.0707 69.3555 27.6308 68.1578 27.6308 66.1289C27.6308 65.0427 28.0743 64.2089 28.7368 63.6645L28.7381 63.6632ZM22.9475 63.0085C22.8001 63.0816 22.7609 63.1918 22.7258 63.2993C22.6893 63.4812 22.8366 63.6964 22.9827 63.9154L24.2387 65.7279L25.4906 63.9526C25.638 63.7349 25.7137 63.5184 25.7137 63.375C25.7515 63.2263 25.6785 63.1201 25.5298 63.0112H27.8161C27.3767 63.2263 26.9683 63.8822 26.6736 64.2447L24.793 66.8539V67.867C24.793 68.3742 24.9769 69.0275 25.2716 69.2041H22.9827C23.2787 69.0275 23.4613 68.3729 23.4613 67.867V66.8539L21.3968 63.9885C21.0628 63.5171 20.8451 63.1918 20.4017 63.0099H22.9475V63.0085ZM15.1262 63.5516C15.6791 63.1201 16.4173 62.8651 17.2664 62.8651C18.1155 62.8651 18.8901 63.1188 19.4431 63.5516C20.1042 64.1345 20.5869 64.9671 20.5869 66.1262C20.5869 67.2854 20.1042 68.1193 19.4431 68.661C18.8901 69.1337 18.1506 69.3873 17.2664 69.3873C16.3822 69.3873 15.6791 69.1324 15.1262 68.661C14.4623 68.1193 13.9824 67.2881 13.9824 66.1262C13.9824 64.9644 14.4623 64.1345 15.1262 63.5516ZM6.8249 63.0085H10.0359C10.8471 63.0085 11.3987 63.0085 11.8057 63.1573C12.4695 63.4069 12.8386 64.0243 12.8386 64.8582C12.8007 65.6549 12.3221 66.2365 11.3622 66.417C11.8057 66.5976 12.0639 67.0677 12.36 67.6492C12.6561 68.2614 12.9143 68.8071 13.5024 69.2373L11.6218 69.2001C11.2175 68.6238 10.958 67.8617 10.6254 67.316C10.4036 66.9575 10.1103 66.741 9.59244 66.741H8.63523V67.863C8.63523 68.3702 8.8218 69.0249 9.11384 69.2386H6.82625C7.12369 69.0262 7.30621 68.3716 7.30621 67.863V64.3855C7.30621 63.8039 7.12369 63.1905 6.82625 63.0072L6.8249 63.0085ZM17.7815 6.5939C17.192 6.5939 16.7121 6.81167 16.3808 7.13698C15.9739 7.53665 15.7914 8.1169 15.7914 8.87774C15.7914 9.63857 15.9739 10.252 16.3808 10.6158C16.7121 10.9412 17.192 11.1589 17.7815 11.1589C18.371 11.1589 18.8509 10.9412 19.1849 10.6158C19.5891 10.252 19.8109 9.67442 19.8109 8.87774C19.8109 8.08105 19.5878 7.53665 19.1849 7.13698C18.8509 6.81167 18.3723 6.5939 17.7815 6.5939ZM40.1409 3.98609H6.60452C5.1998 3.98874 4.06141 5.10676 4.05871 6.48635V13.8026H42.7232V6.48635C42.7232 5.10809 41.5808 3.98609 40.1422 3.98609H40.1409ZM11.8422 12.1388C11.4001 11.5214 11.1432 10.7234 10.7741 10.1458C10.551 9.74612 10.259 9.56421 9.74116 9.56421H8.70553V10.7234C8.70553 11.2691 8.89211 11.9569 9.22335 12.1388H6.78704C7.12234 11.9583 7.30486 11.2691 7.30486 10.7234V7.06528C7.30486 6.48635 7.12234 5.83307 6.78704 5.61531H10.1833C11.031 5.61531 11.5839 5.61531 12.0287 5.79589C12.7277 6.0495 13.0968 6.70013 13.0968 7.53532C13.0968 8.37051 12.5817 8.98396 11.5488 9.20172C12.0274 9.41948 12.2856 9.88953 12.6155 10.5056C12.913 11.1231 13.2077 11.7392 13.7985 12.1375H11.8408L11.8422 12.1388ZM20.0691 11.5586C19.4796 12.0645 18.7049 12.3194 17.7815 12.3194C16.8581 12.3194 16.0847 12.0645 15.4939 11.5586C14.7949 10.9783 14.3123 10.1099 14.3123 8.87906C14.3123 7.64819 14.7949 6.77714 15.4939 6.19954C16.0834 5.72684 16.8594 5.47191 17.7815 5.47191C18.7036 5.47191 19.4796 5.72684 20.0691 6.19954C20.7708 6.77714 21.2507 7.68271 21.2507 8.87906C21.2507 10.0754 20.7708 10.9783 20.0691 11.5586ZM27.1536 12.1388H22.1715C22.5027 11.9197 22.6879 11.305 22.6879 10.7234V7.06528C22.6879 6.5222 22.5013 5.83307 22.1715 5.61531H24.5699C24.2738 5.83174 24.0899 6.5222 24.0899 7.06528V11.0872H25.3797C26.2302 11.0872 27.0035 10.9398 27.3753 10.4711L27.1522 12.1375L27.1536 12.1388ZM33.3903 10.4724L33.1321 12.1734H28.1865C28.5177 11.9583 28.7016 11.305 28.7016 10.7234V7.06528C28.7016 6.5222 28.5177 5.83307 28.1865 5.61531H30.5849C30.2524 5.83174 30.0685 6.5222 30.0685 7.06528V11.0872H31.3961C32.2466 11.1217 33.0185 10.9398 33.3903 10.4711V10.4724ZM37.0407 12.2477C36.2282 12.2477 35.1953 12.1017 34.5706 11.7763V10.2188C34.7153 10.4353 35.0493 10.6902 35.2696 10.7977C35.8118 11.0899 36.4229 11.2386 37.0407 11.2319C37.9628 11.2319 38.5185 10.8349 38.5185 10.2533C38.5185 9.56554 37.8168 9.45666 36.7474 9.3106C35.3832 9.13135 34.6437 8.51524 34.6437 7.4291C34.6815 6.34029 35.7144 5.50908 37.2287 5.50908C38.2589 5.50908 38.9606 5.72552 39.4027 5.94328V7.35607C39.2567 7.10113 38.9241 6.92055 38.5915 6.77714C38.1521 6.63241 37.6911 6.55805 37.2273 6.56071C36.4864 6.56071 36.0457 6.8515 36.0457 7.21134C36.0457 7.82877 36.6351 7.90047 37.925 8.15408C39.2175 8.41035 39.9922 8.95342 39.957 10.0767C39.9192 11.3807 38.8849 12.2504 37.0407 12.2504V12.2477ZM11.4379 64.8914C11.4379 64.2421 10.9201 64.0243 10.1103 64.0243H8.63388V65.7637H10.1103C10.9215 65.7637 11.4379 65.5088 11.4379 64.8914ZM17.3029 68.2985C17.8031 68.3038 18.2831 68.1087 18.6319 67.7568C19.001 67.4302 19.1849 66.8897 19.1849 66.1262C19.1849 65.3628 19.001 64.825 18.6319 64.4598C18.2993 64.1345 17.8545 63.9526 17.3029 63.9526C16.7121 63.9526 16.2673 64.1332 15.936 64.4598C15.5696 64.8237 15.3831 65.3654 15.3831 66.1262C15.3831 66.8871 15.5696 67.4302 15.936 67.7568C16.2673 68.0834 16.7107 68.2985 17.3029 68.2985ZM10.2576 6.66561H8.70418V8.51392H10.2576C11.104 8.51392 11.6569 8.26163 11.6569 7.60702C11.6569 6.91789 11.104 6.66428 10.2576 6.66428V6.66561ZM335.618 27.5799C335.618 26.612 335.035 26.1857 333.855 26.1857H331.957V31.0867H332.711V28.9622H333.58L334.897 31.0867H335.743L334.324 28.929C335.057 28.84 335.616 28.4576 335.616 27.5799H335.618ZM332.712 28.3341V26.8164H333.744C334.27 26.8164 334.83 26.928 334.83 27.5361C334.83 28.289 334.258 28.3341 333.617 28.3341H332.712ZM333.628 24.3879C331.247 24.3879 329.232 26.1871 329.232 28.6262C329.232 31.0654 331.247 32.8872 333.628 32.8872C336.008 32.8872 338 31.088 338 28.6262C338 26.1645 335.986 24.3879 333.628 24.3879ZM333.626 32.1781C331.648 32.1781 330.103 30.6711 330.103 28.6262C330.103 26.5814 331.647 25.0969 333.626 25.0969C335.606 25.0969 337.129 26.6146 337.129 28.6262C337.129 30.6379 335.585 32.1781 333.626 32.1781Z" fill="#1D1D1B"/>
</g>
<defs>
<clipPath id="clip0_211_683">
<rect width="338" height="75" fill="white"/>
</clipPath>
</defs>
</svg>
