<svg width="92" height="26" viewBox="0 0 92 26" fill="none" xmlns="http://www.w3.org/2000/svg">
<g clip-path="url(#clip0_211_1170)">
<path d="M12.9948 2.34253C16.4667 2.34253 16.8742 2.35801 18.2464 2.41992C19.5155 2.47668 20.2016 2.68823 20.6607 2.86882C21.2694 3.10617 21.7028 3.3848 22.1567 3.83886C22.6107 4.29292 22.8944 4.72633 23.1266 5.33519C23.302 5.7944 23.5187 6.48065 23.5754 7.74995C23.6373 9.12245 23.6528 9.53007 23.6528 13.0026C23.6528 16.4751 23.6373 16.8827 23.5754 18.2552C23.5187 19.5245 23.3071 20.2108 23.1266 20.67C22.8893 21.2788 22.6107 21.7122 22.1567 22.1663C21.7028 22.6204 21.2694 22.9041 20.6607 23.1363C20.2016 23.3118 19.5155 23.5285 18.2464 23.5852C16.8742 23.6472 16.4667 23.6626 12.9948 23.6626C9.52302 23.6626 9.11548 23.6472 7.74325 23.5852C6.47421 23.5285 5.7881 23.3169 5.32897 23.1363C4.72024 22.899 4.2869 22.6204 3.83294 22.1663C3.37897 21.7122 3.09524 21.2788 2.8631 20.67C2.6877 20.2108 2.47103 19.5245 2.41429 18.2552C2.35238 16.8827 2.3369 16.4751 2.3369 13.0026C2.3369 9.53007 2.35238 9.12245 2.41429 7.74995C2.47103 6.48065 2.68254 5.7944 2.8631 5.33519C3.1004 4.72633 3.37897 4.29292 3.83294 3.83886C4.2869 3.3848 4.72024 3.10101 5.32897 2.86882C5.7881 2.69339 6.47421 2.47668 7.74325 2.41992C9.11548 2.35285 9.52817 2.34253 12.9948 2.34253ZM12.9948 0C9.46627 0 9.02262 0.0154793 7.63492 0.0773963C6.25238 0.139313 5.30833 0.361183 4.48294 0.681087C3.62659 1.01131 2.90437 1.46021 2.18214 2.18258C1.45992 2.90494 1.01627 3.63247 0.680952 4.48383C0.361111 5.30939 0.139286 6.25362 0.077381 7.6416C0.0154762 9.02441 0 9.46815 0 12.9974C0 16.5267 0.0154762 16.9704 0.077381 18.3584C0.139286 19.7412 0.361111 20.6855 0.680952 21.5162C1.01111 22.3727 1.45992 23.0951 2.18214 23.8174C2.90437 24.5398 3.63175 24.9835 4.48294 25.3189C5.30833 25.6388 6.25238 25.8607 7.64008 25.9226C9.02778 25.9845 9.46627 26 13 26C16.5337 26 16.9722 25.9845 18.3599 25.9226C19.7425 25.8607 20.6865 25.6388 21.5171 25.3189C22.3734 24.9887 23.0956 24.5398 23.8179 23.8174C24.5401 23.0951 24.9837 22.3675 25.319 21.5162C25.6389 20.6906 25.8607 19.7464 25.9226 18.3584C25.9845 16.9704 26 16.5319 26 12.9974C26 9.46299 25.9845 9.02441 25.9226 7.63644C25.8607 6.25362 25.6389 5.30939 25.319 4.47867C24.9889 3.62215 24.5401 2.89978 23.8179 2.17742C23.0956 1.45505 22.3683 1.01131 21.5171 0.675928C20.6917 0.356023 19.7476 0.134154 18.3599 0.0722366C16.9671 0.0154793 16.5234 0 12.9948 0Z" fill="white"/>
<path d="M12.9947 6.32617C9.3114 6.32617 6.31934 9.31367 6.31934 13.0029C6.31934 16.6921 9.30624 19.6796 12.9947 19.6796C16.6832 19.6796 19.6701 16.6921 19.6701 13.0029C19.6701 9.31367 16.6832 6.32617 12.9947 6.32617ZM12.9947 17.3319C10.6011 17.3319 8.6614 15.3919 8.6614 12.9977C8.6614 10.6036 10.6011 8.66354 12.9947 8.66354C15.3884 8.66354 17.3281 10.6036 17.3281 12.9977C17.3281 15.3919 15.3884 17.3319 12.9947 17.3319Z" fill="white"/>
<path d="M19.9334 7.61552C20.7938 7.61552 21.4914 6.91786 21.4914 6.05727C21.4914 5.19667 20.7938 4.49902 19.9334 4.49902C19.073 4.49902 18.3755 5.19667 18.3755 6.05727C18.3755 6.91786 19.073 7.61552 19.9334 7.61552Z" fill="white"/>
</g>
<path d="M92 15.2317V24.8442H86.4273V15.8755C86.4273 13.6226 85.6215 12.0848 83.6043 12.0848C82.0647 12.0848 81.1483 13.1209 80.7451 14.1231C80.5983 14.4816 80.5602 14.9803 80.5602 15.482V24.8436H74.9856C74.9856 24.8436 75.0606 9.65358 74.9856 8.08012H80.5596V10.4563C80.5481 10.4739 80.5336 10.4932 80.5227 10.5107H80.5596V10.4563C81.3001 9.31568 82.6227 7.6866 85.5828 7.6866C89.2502 7.6866 92 10.0828 92 15.2317ZM69.1542 0C67.2477 0 66 1.25067 66 2.89608C66 4.54148 67.2114 5.79396 69.0804 5.79396H69.1179C71.0619 5.79396 72.2709 4.50521 72.2709 2.89608C72.234 1.25067 71.0613 0 69.1542 0ZM66.3313 24.8442H71.9034V8.08072H66.3313V24.8442Z" fill="white"/>
<defs>
<clipPath id="clip0_211_1170">
<rect width="26" height="26" fill="white"/>
</clipPath>
</defs>
</svg>
