<svg width="518" height="505" viewBox="0 0 518 505" fill="none" xmlns="http://www.w3.org/2000/svg">
<path d="M481.154 2.06091H84.7137C68.5001 2.06091 54.4199 13.2687 50.7627 29.1058L4.37718 231.699C1.20761 245.404 1.20761 259.657 4.37718 273.362L50.7627 475.955C54.4199 491.792 68.5001 503 84.7137 503H382.41C398.624 503 412.704 491.792 416.361 475.955L449.459 331.472C453.664 313.199 439.767 295.778 420.993 295.778H352.909C334.257 295.778 320.359 278.479 324.382 260.266L335.11 211.963C338.097 198.623 349.922 189.06 363.636 189.06H458.724C472.316 189.06 484.141 179.68 487.189 166.401L515.105 44.5165C520.104 22.7709 503.524 2 481.154 2V2.06091ZM152.128 91.175C152.128 92.1495 151.884 93.1241 151.397 93.916C150.909 94.7688 150.239 95.4388 149.385 95.9261L126.223 109.266C125.37 109.753 124.394 109.997 123.48 109.997C122.566 109.997 121.591 109.753 120.737 109.266L97.5749 95.9261C96.7215 95.4388 96.0511 94.7078 95.5634 93.916C95.0758 93.0632 94.832 92.1495 94.832 91.175V64.4347C94.832 63.4601 95.0758 62.4855 95.5634 61.6936C96.0511 60.9018 96.7215 60.1708 97.5749 59.6835L117.994 47.9275L120.737 46.3438C121.591 45.8565 122.566 45.6129 123.48 45.6129C124.394 45.6129 125.37 45.8565 126.223 46.3438L128.966 47.9275L149.385 59.6835C150.239 60.1708 150.909 60.9018 151.397 61.6936C151.884 62.4855 152.128 63.4601 152.128 64.4347V91.175Z" stroke="white" stroke-width="3" stroke-miterlimit="10"/>
<path d="M192.628 433.045C190.955 431.777 188.622 431.117 185.681 431.117C183.095 431.117 181.015 431.726 179.342 432.893C177.669 434.06 176.857 435.633 176.806 437.611H182.435C182.588 436.14 183.754 435.379 185.985 435.379C188.47 435.379 189.687 436.445 189.687 438.626V439.134H184.109C181.269 439.134 179.139 439.844 177.719 441.214C176.299 442.583 175.589 444.207 175.589 446.084C175.589 447.961 176.249 449.686 177.567 451.005C178.886 452.324 180.711 453.035 182.942 453.035C185.529 453.035 187.456 452.274 188.774 450.701H189.839V452.477H195.062V438.931C195.062 436.242 194.251 434.263 192.578 432.995L192.628 433.045ZM189.687 444.156C189.687 445.475 189.231 446.49 188.369 447.302C187.506 448.113 186.391 448.519 185.022 448.519C182.537 448.519 181.32 447.555 181.32 445.628C181.32 443.7 182.638 442.837 185.224 442.837H189.687V444.156ZM137.962 434.009H136.897V431.676H131.42V452.527H137.1V443.395C137.1 439.083 139.23 436.952 143.489 436.952H145.518V431.676H143.591C140.903 431.676 139.027 432.437 138.013 434.009H137.962ZM160.579 431.117C157.384 431.117 154.798 432.081 152.922 434.06C151.045 436.039 150.082 438.677 150.082 441.975C150.082 445.272 151.045 448.012 152.922 449.991C154.849 451.969 157.435 452.984 160.68 452.984C163.419 452.984 165.65 452.375 167.273 451.158C168.946 449.94 169.961 448.266 170.417 446.084H164.636C164.078 447.555 162.81 448.266 160.731 448.266C157.536 448.266 155.812 446.389 155.66 442.685H170.569V440.96C170.518 438.017 169.606 435.684 167.831 433.806C166.056 431.98 163.622 431.067 160.528 431.067L160.579 431.117ZM155.914 438.931C156.522 436.546 158.043 435.379 160.528 435.379C163.013 435.379 164.433 436.546 164.839 438.931H155.914ZM115.548 448.316C113.874 448.316 112.657 447.708 111.897 446.541C111.136 445.374 110.68 443.852 110.68 442.025C110.68 440.199 111.085 438.677 111.846 437.561C112.607 436.445 113.874 435.836 115.548 435.836C117.526 435.836 118.793 436.648 119.25 438.271H124.879C124.625 436.089 123.611 434.364 121.937 433.045C120.264 431.726 118.083 431.067 115.497 431.067C112.302 431.067 109.716 432.081 107.84 434.06C105.964 436.039 105 438.728 105 442.025C105 445.323 105.964 448.012 107.84 449.991C109.716 451.969 112.302 452.984 115.497 452.984C118.083 452.984 120.264 452.274 121.988 450.904C123.712 449.534 124.726 447.708 125.031 445.425H119.453C119.098 447.302 117.779 448.266 115.548 448.266V448.316ZM279.902 452.527H285.581L289.232 431.676H283.553L279.902 452.527ZM209.16 425.79H203.48V431.625H200.438V436.394H203.48V446.033C203.48 448.418 204.19 450.092 205.661 451.056C207.132 452.02 209.16 452.477 211.746 452.477H213.724V447.657H211.797C210.022 447.657 209.109 446.896 209.109 445.323V436.343H213.673V431.574H209.109V425.79H209.16ZM338.523 431.625L338.168 433.806H337.103C336.647 433.045 335.937 432.386 334.973 431.879C334.01 431.371 332.894 431.067 331.525 431.067C328.381 431.067 325.846 432.284 323.969 434.72C322.093 437.155 321.129 440.047 321.129 443.395C321.129 445.932 321.789 448.012 323.158 449.686C324.527 451.36 326.403 452.121 328.837 452.121C331.272 452.121 332.996 451.36 334.01 449.788H335.075L334.872 450.802C334.162 454.607 332.337 456.535 329.446 456.535C328.33 456.535 327.367 456.332 326.657 455.876C325.947 455.419 325.541 454.81 325.44 453.948H319.862C319.912 456.231 320.774 457.956 322.499 459.174C324.223 460.391 326.403 461 329.091 461C332.134 461 334.669 460.138 336.698 458.463C338.726 456.738 339.994 454.354 340.552 451.31L344 431.574H338.523V431.625ZM335.227 445.374C334.213 446.744 332.844 447.454 331.119 447.454C329.801 447.454 328.787 447.048 328.026 446.236C327.265 445.425 326.86 444.308 326.86 442.939C326.86 440.858 327.418 439.184 328.482 437.865C329.547 436.546 330.866 435.887 332.438 435.887C333.756 435.887 334.821 436.292 335.582 437.155C336.343 438.017 336.748 439.134 336.748 440.554C336.748 442.381 336.241 444.004 335.227 445.374ZM309.06 431.117C306.525 431.117 304.547 431.929 303.127 433.502H302.062L302.417 431.625H296.89L293.238 452.477H298.918L300.845 441.417C301.149 439.742 301.758 438.474 302.772 437.51C303.736 436.546 304.902 436.089 306.322 436.089C308.553 436.089 309.669 437.104 309.669 439.134C309.669 439.742 309.618 440.402 309.466 441.061L307.438 452.426H313.117L315.247 440.148C315.399 439.083 315.501 438.22 315.501 437.611C315.501 435.633 314.943 434.06 313.827 432.842C312.711 431.625 311.139 431.016 309.06 431.016V431.117ZM284.161 428.073H289.892L290.804 423H285.023L284.111 428.073H284.161ZM257.082 455.064H217.477V458.768H277.975V455.064H257.082Z" fill="white"/>
</svg>
