<svg width="554" height="139" viewBox="0 0 554 139" fill="none" xmlns="http://www.w3.org/2000/svg">
<g clip-path="url(#clip0_211_717)">
<path d="M486.357 29.7329H493.384V31.3349H486.357V29.7329Z" fill="#1D1D1B"/>
<path d="M369.509 20.0158L368.88 36.0963V36.3743C368.88 37.7372 369.288 38.0171 371.49 38.1707V38.9153C369.886 38.7909 369.257 38.7598 368.377 38.7598C367.497 38.7598 366.867 38.7909 365.231 38.9153V38.1707C367.433 38.0152 367.747 37.7683 367.81 36.0943L368.471 20.881V20.6963C368.471 19.2712 368.031 18.9601 365.861 18.8376V18.0638C367.086 18.1571 367.558 18.1883 368.44 18.1883C369.604 18.1883 370.233 18.1571 371.427 18.0327L377.275 33.7107L383.218 18.0327C384.633 18.1571 385.294 18.1883 386.237 18.1883C387.023 18.1883 387.526 18.1571 388.721 18.0638V18.8376C386.583 18.962 386.111 19.2712 386.111 20.6652V20.8829L386.456 36.0963C386.488 37.7702 386.77 38.0171 389.035 38.1727V38.9173C387.054 38.7306 386.298 38.6684 385.105 38.6684C383.911 38.6684 383.155 38.7306 381.174 38.9173V38.1727C383.313 38.0482 383.785 37.708 383.785 36.2518V36.0963L383.503 20.0469L378.315 33.8663L377.938 34.8889L377.498 36.036L377.09 37.2142L376.745 38.2368H376.273L375.928 37.2453L375.488 36.036L375.048 34.8267L374.671 33.7418L369.513 20.0158H369.509Z" fill="#1D1D1B"/>
<path d="M393.122 30.0223C393.435 26.4586 394.631 24.6311 396.644 24.6311C398.656 24.6311 399.726 26.3653 399.915 30.0223H393.122ZM397.21 38.1413C394.349 38.1413 393.09 35.9716 393.058 31.1383H402.429C402.366 26.3672 400.385 23.8262 396.673 23.8262C392.962 23.8262 390.541 26.8319 390.541 31.603C390.541 36.374 392.899 39.164 396.955 39.164C400.037 39.164 402.05 37.2742 402.458 34.0818H401.202C400.825 36.7162 399.442 38.1413 397.208 38.1413" fill="#1D1D1B"/>
<path d="M404.301 24.9737V24.4157C406.093 24.2601 407.162 24.0754 408.453 23.7021C408.611 24.8492 408.674 25.345 408.735 26.2743V26.6146C409.426 24.8492 410.779 23.8266 412.413 23.8266C414.047 23.8266 415.15 24.8492 415.15 26.3365C415.15 27.2348 414.615 27.8238 413.83 27.8238C413.105 27.8238 412.541 27.3903 412.541 26.7701C412.541 26.7079 412.573 26.5854 412.604 26.461L412.667 26.1518V25.8719C412.667 25.4383 412.29 25.1292 411.724 25.1292C410.088 25.1292 409.051 27.0812 409.051 30.1491V36.6252C409.051 37.957 409.364 38.2059 411.284 38.2972V38.9174C409.556 38.7619 408.895 38.7308 407.794 38.7308C406.693 38.7308 406.002 38.7619 404.272 38.9174V38.2972C406.19 38.2039 406.535 37.957 406.535 36.6252V26.494C406.503 25.1622 406.345 25.0067 404.712 24.9756H404.303L404.301 24.9737Z" fill="#1D1D1B"/>
<path d="M427.179 23.5483V28.6596H426.487C425.921 25.963 424.758 24.6624 422.839 24.6624C420.481 24.6624 419.096 27.1723 419.096 31.6032C419.096 36.034 420.323 38.1415 422.744 38.1415C424.693 38.1415 425.858 36.7786 426.234 34.0509H427.523C427.114 37.3658 425.323 39.1641 422.491 39.1641C418.843 39.1641 416.359 36.1273 416.359 31.6032C416.359 27.079 418.875 23.8264 422.584 23.8264C423.936 23.8264 424.786 24.1666 425.792 25.127L426.641 23.5483H427.176H427.179Z" fill="#1D1D1B"/>
<path d="M432.343 30.0223C432.657 26.4586 433.853 24.6311 435.865 24.6311C437.878 24.6311 438.947 26.3653 439.137 30.0223H432.343ZM436.432 38.1413C433.571 38.1413 432.312 35.9716 432.28 31.1383H441.65C441.587 26.3672 439.606 23.8262 435.897 23.8262C432.187 23.8262 429.764 26.8319 429.764 31.603C429.764 36.374 432.122 39.164 436.179 39.164C439.261 39.164 441.274 37.2742 441.682 34.0818H440.425C440.048 36.7162 438.665 38.1413 436.432 38.1413Z" fill="#1D1D1B"/>
<path d="M450.36 38.3262C448.095 38.3262 446.901 36.0029 446.901 31.572C446.901 27.1412 448.002 24.8801 450.265 24.8801C452.528 24.8801 453.787 27.2345 453.787 31.7898C453.787 36.0962 452.623 38.3262 450.36 38.3262ZM456.271 35.6937V17.8052C454.699 18.2173 453.284 18.4662 451.524 18.6528V19.1797C453.505 19.1797 453.757 19.3975 453.757 21.0073V26.4296C452.593 24.571 451.682 24.013 449.985 24.013C446.621 24.013 444.261 27.1432 444.261 31.6051C444.261 36.067 446.65 39.1972 450.077 39.1972C451.869 39.1972 453.096 38.3923 453.976 36.6561C454.103 37.8324 454.103 37.9568 454.416 39.135C455.705 38.7325 456.24 38.6081 458.096 38.3923L458.568 38.3301V37.8032C456.461 37.741 456.273 37.5855 456.273 35.6957" fill="#1D1D1B"/>
<path d="M462.337 30.0223C462.65 26.4586 463.846 24.6311 465.859 24.6311C467.871 24.6311 468.941 26.3653 469.13 30.0223H462.339H462.337ZM466.425 38.1413C463.564 38.1413 462.305 35.9716 462.274 31.1383H471.644C471.581 26.3672 469.6 23.8262 465.89 23.8262C462.181 23.8262 459.758 26.8319 459.758 31.603C459.758 36.374 462.116 39.164 466.172 39.164C469.254 39.164 471.267 37.2742 471.675 34.0818H470.419C470.042 36.7162 468.659 38.1413 466.425 38.1413Z" fill="#1D1D1B"/>
<path d="M474.313 39.1952V34.0197L475.004 33.9886C475.57 36.8077 476.89 38.1706 479.092 38.1706C480.947 38.1706 482.332 36.9613 482.332 35.3826C482.332 34.3289 481.734 33.6173 480.193 32.9349L478.998 32.408L477.551 31.7567C475.257 30.7029 474.532 29.8358 474.532 28.0394C474.532 25.5916 476.482 23.9177 479.25 23.9177C480.478 23.9177 481.389 24.1957 482.459 24.9092L482.993 23.6396H483.56V28.4418H482.835C482.553 25.963 481.515 24.7867 479.534 24.7867C477.867 24.7867 476.579 25.9027 476.579 27.3589C476.579 28.5974 477.05 29.0017 479.911 30.2402L481.231 30.7982C483.621 31.8208 484.471 32.8124 484.471 34.6399C484.471 37.2432 482.364 39.1019 479.408 39.1019C477.962 39.1019 476.829 38.7305 475.635 37.8012L474.88 39.1952H474.313Z" fill="#1D1D1B"/>
<path d="M501.955 28.5062C503.622 28.5062 504.565 28.7842 505.288 29.4977C506.01 30.2112 506.42 31.543 506.42 33.0303C506.42 36.1294 504.848 37.8636 502.05 37.8636H500.917C499.25 37.8636 498.968 37.6148 498.968 36.2519V28.5062H501.955ZM498.968 19.1177H501.641C504.283 19.1177 505.445 20.3872 505.445 23.2685C505.445 24.6936 505.1 25.7163 504.408 26.5212C503.715 27.295 502.867 27.5438 501.107 27.5438H498.968V19.1157V19.1177ZM508.245 23.2063C508.245 21.5946 507.553 20.1695 506.359 19.2712C505.29 18.4975 504.062 18.1553 502.02 18.1553H493.751V18.931C496.014 19.0554 496.33 19.3024 496.33 20.9763V36.003C496.33 37.677 496.077 37.8928 493.751 38.0794V38.8221H501.706C504.033 38.8221 505.292 38.5441 506.612 37.7372C508.184 36.7457 509.222 34.8559 509.222 32.904C509.222 31.23 508.5 29.7135 507.273 28.7823C506.612 28.2865 505.921 28.0085 504.788 27.7907C507.052 26.9547 508.247 25.3741 508.247 23.2044" fill="#1D1D1B"/>
<path d="M514.352 30.0223C514.668 26.4586 515.861 24.6311 517.874 24.6311C519.887 24.6311 520.956 26.3653 521.146 30.0223H514.352ZM518.44 38.1413C515.579 38.1413 514.32 35.9716 514.289 31.1383H523.659C523.596 26.3672 521.615 23.8262 517.906 23.8262C514.196 23.8262 511.773 26.8319 511.773 31.603C511.773 36.374 514.131 39.164 518.188 39.164C521.27 39.164 523.282 37.2742 523.691 34.0818H522.434C522.057 36.7162 520.674 38.1413 518.44 38.1413Z" fill="#1D1D1B"/>
<path d="M525.325 25.0978V24.5709C527.148 24.3221 528.217 24.0752 529.476 23.6416C529.634 24.3532 529.729 25.16 529.792 26.3382C530.922 24.6643 532.213 23.9216 534.036 23.9216C535.859 23.9216 537.558 24.882 538.187 26.4004C538.501 27.1431 538.659 28.0122 538.659 29.1884V36.625C538.659 37.9567 538.975 38.2056 540.89 38.297V38.9172C539.223 38.7616 538.596 38.7305 537.463 38.7305C536.331 38.7305 535.672 38.7616 534.036 38.9172V38.297C535.735 38.2348 536.143 37.9256 536.143 36.6852V29.0931C536.143 26.3965 535.326 25.3136 533.314 25.3136C531.175 25.3136 530.042 26.6454 530.042 29.1865V36.6852C530.042 37.9237 530.451 38.2348 532.086 38.297V38.9172C530.451 38.7616 529.823 38.7305 528.691 38.7305C527.558 38.7305 526.929 38.7616 525.295 38.9172V38.297C527.213 38.2036 527.527 37.9567 527.527 36.625V26.5871C527.495 25.3156 527.308 25.1309 525.735 25.1309C525.64 25.1309 525.484 25.0998 525.326 25.0998" fill="#1D1D1B"/>
<path d="M542.112 38.824L550.634 25.0046H546.766C544.722 25.0046 544.219 25.4382 543.087 28.2261H542.457L543.179 24.1978H553.998L545.444 38.0171H549.124C551.263 38.0171 552.143 37.1792 553.086 34.3601H553.747L552.928 38.822H542.112V38.824Z" fill="#1D1D1B"/>
<path d="M317.914 57C301.94 56.9942 288.994 44.2305 289 28.4903C289.006 12.7501 301.959 -0.00583059 317.934 1.99941e-06C333.904 0.00583459 346.848 12.7637 346.848 28.5C346.83 44.2363 333.885 56.9883 317.914 57ZM317.188 2.77632C307.66 3.41985 300.231 7.51627 295.442 15.6294C290.616 23.8106 290.78 32.2368 294.971 40.7251C295.162 40.591 295.273 40.5151 295.375 40.4393C301.379 35.818 307.386 31.1985 313.394 26.583C313.763 26.3439 313.992 25.9434 314.005 25.5079C314.025 25.0724 314.122 24.6447 314.181 24.2111C314.629 21.0401 315.077 17.8691 315.525 14.6981L316.858 5.22212C316.969 4.44055 317.072 3.65509 317.194 2.77826M340.838 40.6124C345.52 32.1104 344.92 21.7322 339.291 13.8077C334.595 7.14299 326.969 3.06989 318.737 2.8327C318.997 4.66608 319.246 6.43335 319.497 8.20257L320.83 17.5969C321.217 20.3383 321.6 23.0776 322.004 25.8112C322.048 26.0348 322.17 26.237 322.346 26.3847C327.942 30.7047 333.543 35.0189 339.149 39.3253C339.709 39.753 340.272 40.1807 340.832 40.6162M340.068 42.088C339.863 41.9947 339.747 41.9364 339.624 41.8897C332.503 39.0414 325.376 36.199 318.248 33.3624C318.029 33.2847 317.79 33.2847 317.571 33.3624C311.906 35.6391 306.245 37.9235 300.586 40.2177L295.839 42.1347C301.369 50.0767 308.891 54.3501 318.676 54.107C327.874 53.8776 334.92 49.6121 340.07 42.0861" fill="#1D1D1B"/>
</g>
<g clip-path="url(#clip1_211_717)">
<path d="M198.357 111.733H205.384V113.335H198.357V111.733Z" fill="#1D1D1B"/>
<path d="M81.5092 102.016L80.8797 118.096V118.374C80.8797 119.737 81.2882 120.017 83.4902 120.171V120.915C81.886 120.791 81.2566 120.76 80.3766 120.76C79.4966 120.76 78.8672 120.791 77.2314 120.915V120.171C79.4334 120.015 79.7472 119.768 79.8103 118.094L80.4713 102.881V102.696C80.4713 101.271 80.0313 100.96 77.8609 100.838V100.064C79.0862 100.157 79.5578 100.188 80.4397 100.188C81.6039 100.188 82.2333 100.157 83.427 100.033L89.2754 115.711L95.2184 100.033C96.6331 100.157 97.2941 100.188 98.2373 100.188C99.0226 100.188 99.5257 100.157 100.721 100.064V100.838C98.5826 100.962 98.111 101.271 98.111 102.665V102.883L98.4563 118.096C98.4879 119.77 98.77 120.017 101.035 120.173V120.917C99.0542 120.731 98.2985 120.668 97.1047 120.668C95.911 120.668 95.1553 120.731 93.1743 120.917V120.173C95.3131 120.048 95.7847 119.708 95.7847 118.252V118.096L95.5025 102.047L90.3152 115.866L89.9383 116.889L89.4983 118.036L89.0899 119.214L88.7446 120.237H88.273L87.9277 119.245L87.4877 118.036L87.0477 116.827L86.6709 115.742L81.5131 102.016H81.5092Z" fill="#1D1D1B"/>
<path d="M105.122 112.022C105.435 108.459 106.631 106.631 108.644 106.631C110.656 106.631 111.726 108.365 111.915 112.022H105.122ZM109.21 120.141C106.349 120.141 105.09 117.972 105.058 113.138H114.429C114.366 108.367 112.385 105.826 108.673 105.826C104.962 105.826 102.541 108.832 102.541 113.603C102.541 118.374 104.899 121.164 108.955 121.164C112.037 121.164 114.05 119.274 114.458 116.082H113.202C112.825 118.716 111.442 120.141 109.208 120.141" fill="#1D1D1B"/>
<path d="M116.301 106.974V106.416C118.093 106.26 119.162 106.075 120.453 105.702C120.611 106.849 120.674 107.345 120.735 108.274V108.615C121.426 106.849 122.779 105.827 124.413 105.827C126.047 105.827 127.15 106.849 127.15 108.337C127.15 109.235 126.615 109.824 125.83 109.824C125.105 109.824 124.541 109.39 124.541 108.77C124.541 108.708 124.573 108.585 124.604 108.461L124.667 108.152V107.872C124.667 107.438 124.29 107.129 123.724 107.129C122.088 107.129 121.051 109.081 121.051 112.149V118.625C121.051 119.957 121.364 120.206 123.284 120.297V120.917C121.556 120.762 120.895 120.731 119.794 120.731C118.693 120.731 118.002 120.762 116.272 120.917V120.297C118.19 120.204 118.535 119.957 118.535 118.625V108.494C118.503 107.162 118.345 107.007 116.712 106.976H116.303L116.301 106.974Z" fill="#1D1D1B"/>
<path d="M139.179 105.548V110.66H138.487C137.921 107.963 136.758 106.662 134.839 106.662C132.481 106.662 131.096 109.172 131.096 113.603C131.096 118.034 132.323 120.141 134.744 120.141C136.693 120.141 137.858 118.779 138.234 116.051H139.523C139.114 119.366 137.323 121.164 134.491 121.164C130.843 121.164 128.359 118.127 128.359 113.603C128.359 109.079 130.875 105.826 134.584 105.826C135.936 105.826 136.786 106.167 137.792 107.127L138.641 105.548H139.176H139.179Z" fill="#1D1D1B"/>
<path d="M144.343 112.022C144.657 108.459 145.853 106.631 147.865 106.631C149.878 106.631 150.947 108.365 151.137 112.022H144.343ZM148.432 120.141C145.571 120.141 144.312 117.972 144.28 113.138H153.65C153.587 108.367 151.606 105.826 147.897 105.826C144.187 105.826 141.764 108.832 141.764 113.603C141.764 118.374 144.122 121.164 148.179 121.164C151.261 121.164 153.274 119.274 153.682 116.082H152.425C152.048 118.716 150.665 120.141 148.432 120.141Z" fill="#1D1D1B"/>
<path d="M162.36 120.326C160.095 120.326 158.901 118.003 158.901 113.572C158.901 109.141 160.002 106.88 162.265 106.88C164.528 106.88 165.787 109.235 165.787 113.79C165.787 118.096 164.623 120.326 162.36 120.326ZM168.271 117.694V99.8052C166.699 100.217 165.284 100.466 163.524 100.653V101.18C165.505 101.18 165.757 101.397 165.757 103.007V108.43C164.593 106.571 163.682 106.013 161.985 106.013C158.621 106.013 156.261 109.143 156.261 113.605C156.261 118.067 158.65 121.197 162.077 121.197C163.869 121.197 165.096 120.392 165.976 118.656C166.103 119.832 166.103 119.957 166.416 121.135C167.705 120.733 168.24 120.608 170.096 120.392L170.568 120.33V119.803C168.461 119.741 168.273 119.585 168.273 117.696" fill="#1D1D1B"/>
<path d="M174.337 112.022C174.65 108.459 175.846 106.631 177.859 106.631C179.871 106.631 180.941 108.365 181.13 112.022H174.339H174.337ZM178.425 120.141C175.564 120.141 174.305 117.972 174.274 113.138H183.644C183.581 108.367 181.6 105.826 177.89 105.826C174.181 105.826 171.758 108.832 171.758 113.603C171.758 118.374 174.116 121.164 178.172 121.164C181.254 121.164 183.267 119.274 183.675 116.082H182.419C182.042 118.716 180.659 120.141 178.425 120.141Z" fill="#1D1D1B"/>
<path d="M186.313 121.195V116.02L187.004 115.989C187.57 118.808 188.89 120.171 191.092 120.171C192.947 120.171 194.332 118.961 194.332 117.383C194.332 116.329 193.734 115.617 192.193 114.935L190.998 114.408L189.551 113.757C187.257 112.703 186.532 111.836 186.532 110.039C186.532 107.592 188.482 105.918 191.25 105.918C192.478 105.918 193.389 106.196 194.459 106.909L194.993 105.64H195.56V110.442H194.835C194.553 107.963 193.515 106.787 191.534 106.787C189.867 106.787 188.579 107.903 188.579 109.359C188.579 110.597 189.05 111.002 191.911 112.24L193.231 112.798C195.621 113.821 196.471 114.812 196.471 116.64C196.471 119.243 194.364 121.102 191.408 121.102C189.962 121.102 188.829 120.731 187.635 119.801L186.88 121.195H186.313Z" fill="#1D1D1B"/>
<path d="M213.955 110.506C215.622 110.506 216.565 110.784 217.288 111.498C218.01 112.211 218.42 113.543 218.42 115.03C218.42 118.129 216.848 119.864 214.05 119.864H212.917C211.25 119.864 210.968 119.615 210.968 118.252V110.506H213.955ZM210.968 101.118H213.641C216.283 101.118 217.445 102.387 217.445 105.269C217.445 106.694 217.1 107.716 216.408 108.521C215.715 109.295 214.867 109.544 213.107 109.544H210.968V101.116V101.118ZM220.245 105.206C220.245 103.595 219.553 102.169 218.359 101.271C217.29 100.497 216.062 100.155 214.02 100.155H205.751V100.931C208.014 101.055 208.33 101.302 208.33 102.976V118.003C208.33 119.677 208.077 119.893 205.751 120.079V120.822H213.706C216.033 120.822 217.292 120.544 218.612 119.737C220.184 118.746 221.222 116.856 221.222 114.904C221.222 113.23 220.5 111.714 219.273 110.782C218.612 110.286 217.921 110.008 216.788 109.791C219.052 108.955 220.247 107.374 220.247 105.204" fill="#1D1D1B"/>
<path d="M226.352 112.022C226.668 108.459 227.861 106.631 229.874 106.631C231.887 106.631 232.956 108.365 233.146 112.022H226.352ZM230.44 120.141C227.579 120.141 226.32 117.972 226.289 113.138H235.659C235.596 108.367 233.615 105.826 229.906 105.826C226.196 105.826 223.773 108.832 223.773 113.603C223.773 118.374 226.131 121.164 230.188 121.164C233.27 121.164 235.282 119.274 235.691 116.082H234.434C234.057 118.716 232.674 120.141 230.44 120.141Z" fill="#1D1D1B"/>
<path d="M237.325 107.098V106.571C239.148 106.322 240.217 106.075 241.476 105.642C241.634 106.353 241.729 107.16 241.792 108.338C242.922 106.664 244.213 105.922 246.036 105.922C247.859 105.922 249.558 106.882 250.187 108.4C250.501 109.143 250.659 110.012 250.659 111.188V118.625C250.659 119.957 250.975 120.206 252.89 120.297V120.917C251.223 120.762 250.596 120.731 249.463 120.731C248.331 120.731 247.672 120.762 246.036 120.917V120.297C247.735 120.235 248.143 119.926 248.143 118.685V111.093C248.143 108.397 247.326 107.314 245.314 107.314C243.175 107.314 242.042 108.645 242.042 111.186V118.685C242.042 119.924 242.451 120.235 244.086 120.297V120.917C242.451 120.762 241.823 120.731 240.691 120.731C239.558 120.731 238.929 120.762 237.295 120.917V120.297C239.213 120.204 239.527 119.957 239.527 118.625V108.587C239.495 107.316 239.308 107.131 237.735 107.131C237.64 107.131 237.484 107.1 237.326 107.1" fill="#1D1D1B"/>
<path d="M254.112 120.824L262.634 107.005H258.766C256.722 107.005 256.219 107.438 255.087 110.226H254.457L255.179 106.198H265.998L257.444 120.017H261.124C263.263 120.017 264.143 119.179 265.086 116.36H265.747L264.928 120.822H254.112V120.824Z" fill="#1D1D1B"/>
<path d="M29.9141 139C13.9397 138.994 0.994083 126.231 1 110.49C1.00592 94.7501 13.9595 81.9942 29.9338 82C45.9043 82.0058 58.8479 94.7637 58.8479 110.5C58.8302 126.236 45.8846 138.988 29.9141 139ZM29.188 84.7763C19.6598 85.4198 12.231 89.5163 7.44224 97.6294C2.61599 105.811 2.77976 114.237 6.97067 122.725C7.16206 122.591 7.27255 122.515 7.37516 122.439C13.3794 117.818 19.3855 113.199 25.3937 108.583C25.7627 108.344 25.9915 107.943 26.0054 107.508C26.0251 107.072 26.1218 106.645 26.181 106.211C26.6289 103.04 27.0768 99.8691 27.5247 96.6981L28.8585 87.2221C28.969 86.4406 29.0716 85.6551 29.1939 84.7783M52.8378 122.612C57.52 114.11 56.9202 103.732 51.2909 95.8077C46.5949 89.143 38.9688 85.0699 30.7369 84.8327C30.9974 86.6661 31.246 88.4334 31.4966 90.2026L32.8304 99.5969C33.2171 102.338 33.5999 105.078 34.0044 107.811C34.0478 108.035 34.1701 108.237 34.3457 108.385C39.9415 112.705 45.5432 117.019 51.1488 121.325C51.7092 121.753 52.2715 122.181 52.8319 122.616M52.0683 124.088C51.8631 123.995 51.7467 123.936 51.6244 123.89C44.5034 121.041 37.3765 118.199 30.2476 115.362C30.0286 115.285 29.7898 115.285 29.5708 115.362C23.906 117.639 18.2451 119.924 12.5862 122.218L7.83884 124.135C13.3695 132.077 20.891 136.35 30.6757 136.107C39.8744 135.878 46.9204 131.612 52.0703 124.086" fill="#1D1D1B"/>
</g>
<g clip-path="url(#clip2_211_717)">
<path fill-rule="evenodd" clip-rule="evenodd" d="M177.936 14H199.105C205.74 14 208.25 18.578 208.25 22.5269C208.25 29.252 202.309 30.4579 202.309 30.4579L210 42.9953H194.521L191.197 34.667V42.9953H163.05L159.726 34.667V42.9953H146.465V14H167.634C174.269 14 176.779 18.578 176.779 22.5269C176.779 29.252 170.838 30.4579 170.838 30.4579L177.936 42.0305V14ZM72.258 19.5238V25.0145H74.1748C75.1888 25.0145 75.9436 24.3855 76.2954 23.643C76.5733 23.0566 76.777 21.9026 76.2677 20.8338C75.6565 19.5333 74.4665 19.538 74.1887 19.5238H72.2626H72.258ZM58.7657 14C58.7657 14 78.0595 14.0047 81.3562 14C87.6532 13.9953 89.1395 18.8239 89.1487 21.6615C89.1672 26.7549 85.6715 28.0082 85.6715 28.0082C85.6715 28.0082 89.4358 29.4553 89.4358 34.8893C89.4358 43.35 81.847 43 80.6709 43H58.7611V14H58.7657ZM145.15 43V36.3412H139.006V31.0538H145.085V25.2841H139.006V19.6988H145.15V14H124.967V43H145.15ZM109.156 43H123.18V14H109.156V24.9861H104.604V14H90.2553V43H104.604V30.8126H109.156V43ZM57.5063 43V36.3412H51.3621V31.0538H57.4415V25.2841H51.3621V19.6988H57.5063V14H37.3236V43H57.5063ZM21.7385 14H35.5317V43H21.7385V14ZM20.368 43V34.9933H14.2238V14H0V43H20.368ZM159.481 19.5191V26.3907H161.161C162.981 26.3907 163.629 25.5111 164.027 24.5842C164.342 23.8511 164.555 22.5222 164.027 21.1601C163.74 20.4224 162.981 19.5191 161.161 19.5191H159.481ZM190.952 19.5191V26.3907H192.632C194.452 26.3907 195.1 25.5111 195.498 24.5842C195.813 23.8511 196.026 22.5222 195.498 21.1601C195.211 20.4224 194.452 19.5191 192.632 19.5191H190.952ZM72.2533 31.2383V37.1782H74.1887C75.2027 37.1782 76.2353 36.4972 76.6149 35.698C76.9159 35.0643 77.1242 33.8252 76.5872 32.6571C75.8834 31.1248 74.3369 31.2572 74.1841 31.243H72.2533V31.2383Z" fill="#1D1D1B"/>
</g>
<g clip-path="url(#clip3_211_717)">
<path fill-rule="evenodd" clip-rule="evenodd" d="M502.936 99H524.105C530.74 99 533.25 103.578 533.25 107.527C533.25 114.252 527.309 115.458 527.309 115.458L535 127.995H519.521L516.197 119.667V127.995H488.05L484.726 119.667V127.995H471.465V99H492.634C499.269 99 501.779 103.578 501.779 107.527C501.779 114.252 495.838 115.458 495.838 115.458L502.936 127.031V99ZM397.258 104.524V110.015H399.175C400.189 110.015 400.944 109.386 401.295 108.643C401.573 108.057 401.777 106.903 401.268 105.834C400.656 104.533 399.467 104.538 399.189 104.524H397.263H397.258ZM383.766 99C383.766 99 403.06 99.0047 406.356 99C412.653 98.9953 414.139 103.824 414.149 106.661C414.167 111.755 410.671 113.008 410.671 113.008C410.671 113.008 414.436 114.455 414.436 119.889C414.436 128.35 406.847 128 405.671 128H383.761V99H383.766ZM470.15 128V121.341H464.006V116.054H470.085V110.284H464.006V104.699H470.15V99H449.967V128H470.15ZM434.156 128H448.18V99H434.156V109.986H429.604V99H415.255V128H429.604V115.813H434.156V128ZM382.506 128V121.341H376.362V116.054H382.442V110.284H376.362V104.699H382.506V99H362.324V128H382.506ZM346.739 99H360.532V128H346.739V99ZM345.368 128V119.993H339.224V99H325V128H345.368ZM484.481 104.519V111.391H486.161C487.981 111.391 488.629 110.511 489.027 109.584C489.342 108.851 489.555 107.522 489.027 106.16C488.74 105.422 487.981 104.519 486.161 104.519H484.481ZM515.952 104.519V111.391H517.632C519.452 111.391 520.1 110.511 520.498 109.584C520.813 108.851 521.026 107.522 520.498 106.16C520.211 105.422 519.452 104.519 517.632 104.519H515.952ZM397.253 116.238V122.178H399.189C400.203 122.178 401.235 121.497 401.615 120.698C401.916 120.064 402.124 118.825 401.587 117.657C400.883 116.125 399.337 116.257 399.184 116.243H397.253V116.238Z" fill="#1D1D1B"/>
</g>
<defs>
<clipPath id="clip0_211_717">
<rect width="265" height="57" fill="white" transform="translate(289)"/>
</clipPath>
<clipPath id="clip1_211_717">
<rect width="265" height="57" fill="white" transform="translate(1 82)"/>
</clipPath>
<clipPath id="clip2_211_717">
<rect width="210" height="29" fill="white" transform="translate(0 14)"/>
</clipPath>
<clipPath id="clip3_211_717">
<rect width="210" height="29" fill="white" transform="translate(325 99)"/>
</clipPath>
</defs>
</svg>
