<svg width="570" height="506" viewBox="0 0 570 506" fill="none" xmlns="http://www.w3.org/2000/svg">
<path d="M567.104 461.343L508.437 205.156C504.835 189.289 490.733 178.06 474.433 178.06H392.384C369.979 178.06 353.374 157.25 358.38 135.403L379.136 44.6572C384.142 22.8099 367.537 2 345.133 2H135.859C119.62 2 105.518 13.2288 101.855 29.0956L2.89595 461.343C-2.11001 483.19 14.4951 504 36.8998 504H533.1C555.505 504 572.11 483.19 567.104 461.343ZM112.417 441.448C112.417 442.425 112.172 443.401 111.684 444.195C111.196 445.049 110.524 445.72 109.669 446.208L86.471 459.573C85.6164 460.061 84.6396 460.305 83.7239 460.305C82.8081 460.305 81.8314 460.061 80.9767 459.573L57.7783 446.208C56.9237 445.72 56.2521 444.988 55.7638 444.195C55.2754 443.34 55.0312 442.425 55.0312 441.448V414.658C55.0312 413.682 55.2754 412.705 55.7638 411.912C56.2521 411.118 56.9237 410.386 57.7783 409.898L78.2295 398.12L80.9767 396.533C81.8314 396.045 82.8081 395.801 83.7239 395.801C84.6396 395.801 85.6164 396.045 86.471 396.533L89.2182 398.12L109.669 409.898C110.524 410.386 111.196 411.118 111.684 411.912C112.172 412.766 112.417 413.682 112.417 414.658V441.448Z" stroke="white" stroke-width="3" stroke-miterlimit="10"/>
<path d="M205.812 431.117C202.532 431.117 199.958 432.132 197.99 434.162C196.021 436.191 195.062 438.829 195.062 442.076C195.062 445.323 196.021 448.012 197.99 449.991C199.958 452.02 202.532 453.035 205.812 453.035C209.093 453.035 211.717 452.02 213.635 450.041C215.553 448.012 216.563 445.374 216.563 442.076C216.563 438.778 215.604 436.14 213.635 434.111C211.667 432.081 209.093 431.117 205.812 431.117ZM209.648 446.541C208.79 447.708 207.528 448.316 205.812 448.316C204.096 448.316 202.885 447.708 202.027 446.541C201.169 445.374 200.715 443.852 200.715 442.076C200.715 440.3 201.119 438.829 202.027 437.611C202.885 436.445 204.147 435.836 205.812 435.836C207.478 435.836 208.79 436.445 209.648 437.611C210.506 438.778 210.91 440.25 210.91 442.076C210.91 443.903 210.506 445.374 209.648 446.541ZM183 452.527H188.653V423H183V452.527ZM232.562 447.454H230.846L226.556 431.676H220.802L226.707 452.527H236.498L242.454 431.676H236.7L232.562 447.454ZM483.549 431.625L483.196 433.806H482.136C481.682 433.045 480.975 432.386 480.016 431.879C479.057 431.371 477.947 431.067 476.584 431.067C473.455 431.067 470.932 432.284 469.064 434.72C467.197 437.155 466.238 440.047 466.238 443.395C466.238 445.932 466.894 448.012 468.257 449.686C469.619 451.36 471.487 452.121 473.909 452.121C476.332 452.121 478.048 451.36 479.057 449.788H480.117L479.915 450.802C479.209 454.607 477.392 456.535 474.515 456.535C473.405 456.535 472.446 456.332 471.739 455.876C471.033 455.419 470.629 454.81 470.528 453.948H464.976C465.027 456.231 465.885 457.956 467.601 459.174C469.317 460.391 471.487 461 474.162 461C477.19 461 479.713 460.138 481.732 458.463C483.751 456.738 485.013 454.354 485.568 451.31L489 431.574H483.549V431.625ZM480.319 445.374C479.31 446.744 477.947 447.454 476.231 447.454C474.919 447.454 473.909 447.048 473.152 446.236C472.395 445.425 471.992 444.308 471.992 442.939C471.992 440.858 472.547 439.184 473.607 437.865C474.667 436.546 475.979 435.887 477.543 435.887C478.855 435.887 479.915 436.292 480.672 437.155C481.429 438.017 481.833 439.134 481.833 440.554C481.833 442.381 481.329 444.004 480.319 445.374ZM429.496 428.073H435.199L436.107 423H430.354L429.445 428.073H429.496ZM454.226 431.117C451.703 431.117 449.734 431.929 448.321 433.502H447.261L447.615 431.625H442.113L438.479 452.477H444.132L446.05 441.417C446.353 439.742 446.958 438.474 447.968 437.51C448.927 436.546 450.088 436.089 451.501 436.089C453.721 436.089 454.832 437.104 454.832 439.134C454.832 439.742 454.781 440.402 454.63 441.061L452.611 452.426H458.264L460.383 440.148C460.535 439.083 460.636 438.22 460.636 437.611C460.636 435.633 460.081 434.06 458.97 432.842C457.86 431.625 456.295 431.016 454.226 431.016V431.117ZM244.876 455.064V458.768H423.288V455.064H244.876ZM425.256 452.527H430.909L434.543 431.676H428.89L425.256 452.527Z" fill="white"/>
</svg>
