<svg width="143" height="68" viewBox="0 0 143 68" fill="none" xmlns="http://www.w3.org/2000/svg">
<g clip-path="url(#clip0_211_649)">
<path d="M124.889 42.0718H131.265C132.815 42.0718 134.037 42.4625 134.924 43.2366C135.82 44.009 136.268 45.1097 136.268 46.5153C136.268 47.921 135.782 49.0966 134.811 49.9528C133.878 50.7734 132.674 51.1729 131.19 51.1729H124.889V42.0718ZM124.889 67.2721V56.3247H131.853C135.176 56.3247 137.847 55.4684 139.854 53.7542C141.954 51.956 143 49.5532 143 46.5332C143 43.5131 142.094 41.2138 140.265 39.4799C138.445 37.7745 135.905 36.9272 132.666 36.9272H118.383V67.2703H124.889V67.2721ZM89.518 55.4417C89.518 59.2698 90.5262 62.2702 92.5514 64.459C94.7268 66.8154 97.9747 67.9999 102.297 67.9999C106.619 67.9999 109.672 66.91 111.828 64.7391C114.032 62.5217 115.133 59.4286 115.133 55.4417V36.9308H108.56V55.8805C108.56 60.333 106.489 62.561 102.352 62.561C98.216 62.561 96.0888 60.3347 96.0888 55.8805V36.9308H89.5162V55.4417H89.518ZM78.2782 44.5139C79.6975 46.378 80.4071 48.911 80.4071 52.1255C80.4071 55.629 79.5491 58.3208 77.8403 60.2027C76.4299 61.7672 74.5638 62.5592 72.2668 62.5592C69.7 62.5592 67.6926 61.5995 66.2448 59.689C64.8541 57.8356 64.1534 55.3204 64.1534 52.1237C64.1534 48.9271 64.8541 46.3762 66.2448 44.5121C67.7016 42.5838 69.6803 41.624 72.1918 41.624C74.7032 41.624 76.8124 42.5838 78.2782 44.5121M61.3613 40.4521C58.7569 43.2473 57.4592 47.1504 57.4592 52.1344C57.4592 57.593 59.0179 61.7119 62.1263 64.5071C64.7129 66.8368 68.0912 67.9999 72.265 67.9999C76.9143 67.9999 80.5555 66.5835 83.1777 63.7508C85.7911 60.9466 87.0977 57.081 87.0977 52.1326C87.0977 47.1843 85.7911 43.2723 83.1777 40.4503C80.5644 37.6086 76.9697 36.2012 72.3866 36.2012C67.8034 36.2012 63.9853 37.6175 61.3613 40.4503M37.6036 42.0718H43.9421C45.6885 42.0718 46.9862 42.3786 47.8442 43.003C48.7129 43.6273 49.1419 44.6619 49.1419 46.1051C49.1419 48.9182 47.4063 50.3256 43.9421 50.3256H37.6036V42.0718ZM37.6036 67.2721V55.4399H44.1387L49.6746 67.2721H57.0409L50.5255 54.3589C54.0915 52.7106 55.8755 49.9992 55.8755 46.2264C55.8755 43.572 55.1944 41.4849 53.8306 39.9383C52.0842 37.9261 49.3493 36.929 45.6349 36.929H31.0524V67.2721H37.6054H37.6036ZM24.8695 39.9758C22.6941 37.4606 19.3336 36.203 14.788 36.203C10.2424 36.203 6.50829 37.6568 3.8753 40.5627C1.28879 43.4239 0 47.3644 0 52.3949C0 57.9747 1.54976 62.14 4.66716 64.8782C7.01951 66.9564 10.0529 67.9999 13.787 67.9999C17.8392 67.9999 20.8905 66.7334 22.9354 64.2075L23.6254 67.2721H27.826V51.2193H16.5397V55.9715H21.4214V57.3682C21.4214 58.9237 20.7582 60.201 19.4337 61.1785C18.1735 62.1007 16.5683 62.5574 14.6253 62.5574C12.096 62.5574 10.1441 61.6905 8.78199 59.9584C7.39131 58.2155 6.69061 55.7003 6.69061 52.4127C6.69061 49.1251 7.35377 46.403 8.67831 44.5317C10.06 42.5945 12.0102 41.6258 14.5503 41.6258C18.0788 41.6258 20.4222 43.4614 21.5805 47.1504L27.742 45.6502C27.0878 43.3116 26.1261 41.4118 24.8659 39.9758" fill="#1D1D1B"/>
<path d="M79.576 30.352L85.2334 8.92455L90.5923 30.352H97.7155L105.098 0H98.4037L93.8098 21.8931L88.6207 0H82.1142L76.7463 21.8931L72.274 0H65.4118L72.3848 30.352H79.5724H79.576ZM36.2219 30.3717V8.74795L43.4291 30.3717H48.8059L55.9756 8.74795V30.3717H62.2015V0.0285414H53.5946L46.2659 22.5656L38.8442 0.0285414H30.0408V30.3717H36.2201H36.2219ZM7.54328 5.17135H14.4698C15.823 5.17135 16.8508 5.33012 17.5694 5.64585C18.7366 6.15782 19.3158 7.12644 19.3158 8.55173C19.3158 9.73442 18.9332 10.6014 18.1771 11.1508C17.4389 11.7002 16.2073 11.9714 14.4716 11.9714H7.54506V5.17135H7.54328ZM7.54328 17.0874H14.3948C16.2055 17.0874 17.5586 17.3211 18.456 17.776C19.6232 18.3718 20.2024 19.4992 20.2024 21.1296C20.2024 22.4996 19.8377 23.486 19.1013 24.1015C18.2057 24.8471 16.6363 25.2199 14.3966 25.2199H7.54506V17.0874H7.54328ZM14.2732 30.3717C22.6369 30.3717 26.8197 27.3249 26.8197 21.2509C26.8197 17.8687 25.1948 15.5301 21.938 14.235C24.5513 12.9774 25.858 10.8065 25.858 7.73295C25.858 5.03043 24.7837 3.00934 22.6459 1.65897C20.9388 0.569045 18.624 0.0285414 15.6925 0.0285414H1.08325V30.3717H14.275H14.2732Z" fill="#1D1D1B"/>
</g>
<defs>
<clipPath id="clip0_211_649">
<rect width="143" height="68" fill="white"/>
</clipPath>
</defs>
</svg>
