<svg width="207" height="242" viewBox="0 0 207 242" fill="none" xmlns="http://www.w3.org/2000/svg">
<path d="M204.322 60.5158C202.587 57.4157 200.122 54.7584 197.018 52.892L123.372 8.79425L113.482 2.78379C110.378 0.917386 106.939 0 103.5 0C100.061 0 96.6223 0.917386 93.5182 2.78379L83.6277 8.79425L9.98177 52.892C6.90811 54.7584 4.4126 57.4157 2.67796 60.5158C0.943321 63.6159 0 67.1906 0 70.8918V171.14C0 174.778 0.912889 178.352 2.67796 181.516C4.44303 184.679 6.96898 187.305 9.98177 189.14L93.5182 239.216C96.5918 241.051 100.061 242 103.5 242C106.939 242 110.378 241.083 113.482 239.216L197.018 189.14C200.061 187.305 202.557 184.679 204.322 181.516C206.087 178.352 207 174.778 207 171.14V70.8918C207 67.1906 206.026 63.6159 204.322 60.5158ZM186.763 141.562C186.763 147.161 182.411 151.685 177.024 151.685C175.32 151.685 173.646 151.21 172.155 150.325L113.573 115.053C110.438 113.281 106.969 112.396 103.5 112.364C100.031 112.364 96.5614 113.281 93.4269 115.053L34.8448 150.325C33.3537 151.21 31.6799 151.685 29.9757 151.685C24.5892 151.685 20.2374 147.161 20.2374 141.562V76.9655C20.2374 73.3592 22.0938 70.006 25.1066 68.2029L93.6704 27.0787L98.8135 23.9153C100.274 23.0612 101.887 22.5867 103.5 22.555C105.113 22.555 106.726 23.0295 108.187 23.9153L113.33 27.0787L181.893 68.2029C184.906 70.006 186.763 73.3592 186.763 76.9655V141.562Z" fill="white"/>
</svg>
