<svg width="566" height="502" viewBox="0 0 566 502" fill="none" xmlns="http://www.w3.org/2000/svg">
<path d="M565.104 459.343L506.437 203.156C502.835 187.289 488.733 176.06 472.433 176.06H390.384C367.979 176.06 351.374 155.25 356.38 133.403L377.136 42.6572C382.142 20.8099 365.537 0 343.133 0H133.859C117.62 0 103.518 11.2288 99.8552 27.0956L0.895952 459.343C-4.11001 481.19 12.4951 502 34.8998 502H531.1C553.505 502 570.11 481.19 565.104 459.343ZM110.417 439.448C110.417 440.425 110.172 441.401 109.684 442.195C109.196 443.049 108.524 443.72 107.669 444.208L84.471 457.573C83.6164 458.061 82.6396 458.305 81.7239 458.305C80.8081 458.305 79.8314 458.061 78.9767 457.573L55.7783 444.208C54.9237 443.72 54.2521 442.988 53.7638 442.195C53.2754 441.34 53.0312 440.425 53.0312 439.448V412.658C53.0312 411.681 53.2754 410.705 53.7638 409.912C54.2521 409.118 54.9237 408.386 55.7783 407.898L76.2295 396.12L78.9767 394.533C79.8314 394.045 80.8081 393.801 81.7239 393.801C82.6396 393.801 83.6164 394.045 84.471 394.533L87.2182 396.12L107.669 407.898C108.524 408.386 109.196 409.118 109.684 409.912C110.172 410.766 110.417 411.681 110.417 412.658V439.448Z" fill="white"/>
<path d="M203.812 429.117C200.532 429.117 197.958 430.132 195.99 432.162C194.021 434.191 193.062 436.829 193.062 440.076C193.062 443.323 194.021 446.012 195.99 447.991C197.958 450.02 200.532 451.035 203.812 451.035C207.093 451.035 209.717 450.02 211.635 448.041C213.553 446.012 214.563 443.374 214.563 440.076C214.563 436.778 213.604 434.14 211.635 432.111C209.667 430.081 207.093 429.117 203.812 429.117ZM207.648 444.541C206.79 445.708 205.528 446.316 203.812 446.316C202.096 446.316 200.885 445.708 200.027 444.541C199.169 443.374 198.715 441.852 198.715 440.076C198.715 438.3 199.119 436.829 200.027 435.611C200.885 434.445 202.147 433.836 203.812 433.836C205.478 433.836 206.79 434.445 207.648 435.611C208.506 436.778 208.91 438.25 208.91 440.076C208.91 441.903 208.506 443.374 207.648 444.541ZM181 450.527H186.653V421H181V450.527ZM230.562 445.454H228.846L224.556 429.676H218.802L224.707 450.527H234.498L240.454 429.676H234.7L230.562 445.454ZM481.549 429.625L481.196 431.806H480.136C479.682 431.045 478.975 430.386 478.016 429.879C477.057 429.371 475.947 429.067 474.584 429.067C471.455 429.067 468.932 430.284 467.064 432.72C465.197 435.155 464.238 438.047 464.238 441.395C464.238 443.932 464.894 446.012 466.257 447.686C467.619 449.36 469.487 450.121 471.909 450.121C474.332 450.121 476.048 449.36 477.057 447.788H478.117L477.915 448.802C477.209 452.607 475.392 454.535 472.515 454.535C471.405 454.535 470.446 454.332 469.739 453.876C469.033 453.419 468.629 452.81 468.528 451.948H462.976C463.027 454.231 463.885 455.956 465.601 457.174C467.317 458.391 469.487 459 472.162 459C475.19 459 477.713 458.138 479.732 456.463C481.751 454.738 483.013 452.354 483.568 449.31L487 429.574H481.549V429.625ZM478.319 443.374C477.31 444.744 475.947 445.454 474.231 445.454C472.919 445.454 471.909 445.048 471.152 444.236C470.395 443.425 469.992 442.308 469.992 440.939C469.992 438.858 470.547 437.184 471.607 435.865C472.667 434.546 473.979 433.887 475.543 433.887C476.855 433.887 477.915 434.292 478.672 435.155C479.429 436.017 479.833 437.134 479.833 438.554C479.833 440.381 479.329 442.004 478.319 443.374ZM427.496 426.073H433.199L434.107 421H428.354L427.445 426.073H427.496ZM452.226 429.117C449.703 429.117 447.734 429.929 446.321 431.502H445.261L445.615 429.625H440.113L436.479 450.477H442.132L444.05 439.417C444.353 437.742 444.958 436.474 445.968 435.51C446.927 434.546 448.088 434.089 449.501 434.089C451.721 434.089 452.832 435.104 452.832 437.134C452.832 437.742 452.781 438.402 452.63 439.061L450.611 450.426H456.264L458.383 438.148C458.535 437.083 458.636 436.22 458.636 435.611C458.636 433.633 458.081 432.06 456.97 430.842C455.86 429.625 454.295 429.016 452.226 429.016V429.117ZM242.876 453.064V456.768H421.288V453.064H242.876ZM423.256 450.527H428.909L432.543 429.676H426.89L423.256 450.527Z" fill="#1D1D1B"/>
</svg>
