<svg width="586" height="75" viewBox="0 0 586 75" fill="none" xmlns="http://www.w3.org/2000/svg">
<g clip-path="url(#clip0_29_22)">
<path d="M124.889 45.0718H131.265C132.815 45.0718 134.037 45.4625 134.924 46.2366C135.82 47.009 136.268 48.1097 136.268 49.5153C136.268 50.921 135.782 52.0966 134.811 52.9528C133.878 53.7734 132.674 54.1729 131.19 54.1729H124.889V45.0718ZM124.889 70.2721V59.3247H131.853C135.176 59.3247 137.847 58.4684 139.854 56.7542C141.954 54.956 143 52.5532 143 49.5332C143 46.5131 142.094 44.2138 140.265 42.4799C138.445 40.7745 135.905 39.9272 132.666 39.9272H118.383V70.2703H124.889V70.2721ZM89.518 58.4417C89.518 62.2698 90.5262 65.2702 92.5514 67.459C94.7268 69.8154 97.9747 70.9999 102.297 70.9999C106.619 70.9999 109.672 69.91 111.828 67.7391C114.032 65.5217 115.133 62.4286 115.133 58.4417V39.9308H108.56V58.8805C108.56 63.333 106.489 65.561 102.352 65.561C98.216 65.561 96.0888 63.3347 96.0888 58.8805V39.9308H89.5162V58.4417H89.518ZM78.2782 47.5139C79.6975 49.378 80.4071 51.911 80.4071 55.1255C80.4071 58.629 79.5491 61.3208 77.8403 63.2027C76.4299 64.7672 74.5638 65.5592 72.2668 65.5592C69.7 65.5592 67.6926 64.5995 66.2448 62.689C64.8541 60.8356 64.1534 58.3204 64.1534 55.1237C64.1534 51.9271 64.8541 49.3762 66.2448 47.5121C67.7016 45.5838 69.6803 44.624 72.1918 44.624C74.7032 44.624 76.8124 45.5838 78.2782 47.5121M61.3613 43.4521C58.7569 46.2473 57.4592 50.1504 57.4592 55.1344C57.4592 60.593 59.0179 64.7119 62.1263 67.5071C64.7129 69.8368 68.0912 70.9999 72.265 70.9999C76.9143 70.9999 80.5555 69.5835 83.1777 66.7508C85.7911 63.9466 87.0977 60.081 87.0977 55.1326C87.0977 50.1843 85.7911 46.2723 83.1777 43.4503C80.5644 40.6086 76.9697 39.2012 72.3866 39.2012C67.8034 39.2012 63.9853 40.6175 61.3613 43.4503M37.6036 45.0718H43.9421C45.6885 45.0718 46.9862 45.3786 47.8442 46.003C48.7129 46.6273 49.1419 47.6619 49.1419 49.1051C49.1419 51.9182 47.4063 53.3256 43.9421 53.3256H37.6036V45.0718ZM37.6036 70.2721V58.4399H44.1387L49.6746 70.2721H57.0409L50.5255 57.3589C54.0915 55.7106 55.8755 52.9992 55.8755 49.2264C55.8755 46.572 55.1944 44.4849 53.8306 42.9383C52.0842 40.9261 49.3493 39.929 45.6349 39.929H31.0524V70.2721H37.6054H37.6036ZM24.8695 42.9758C22.6941 40.4606 19.3336 39.203 14.788 39.203C10.2424 39.203 6.50829 40.6568 3.8753 43.5627C1.28879 46.4239 0 50.3644 0 55.3949C0 60.9747 1.54976 65.14 4.66716 67.8782C7.01951 69.9564 10.0529 70.9999 13.787 70.9999C17.8392 70.9999 20.8905 69.7334 22.9354 67.2075L23.6254 70.2721H27.826V54.2193H16.5397V58.9715H21.4214V60.3682C21.4214 61.9237 20.7582 63.201 19.4337 64.1785C18.1735 65.1007 16.5683 65.5574 14.6253 65.5574C12.096 65.5574 10.1441 64.6905 8.78199 62.9584C7.39131 61.2155 6.69061 58.7003 6.69061 55.4127C6.69061 52.1251 7.35377 49.403 8.67831 47.5317C10.06 45.5945 12.0102 44.6258 14.5503 44.6258C18.0788 44.6258 20.4222 46.4614 21.5805 50.1504L27.742 48.6502C27.0878 46.3116 26.1261 44.4118 24.8659 42.9758" fill="#1D1D1B"/>
<path d="M79.576 33.352L85.2334 11.9246L90.5923 33.352H97.7155L105.098 3H98.4037L93.8098 24.8931L88.6207 3H82.1142L76.7463 24.8931L72.274 3H65.4118L72.3848 33.352H79.5724H79.576ZM36.2219 33.3717V11.748L43.4291 33.3717H48.8059L55.9756 11.748V33.3717H62.2015V3.02854H53.5946L46.2659 25.5656L38.8442 3.02854H30.0408V33.3717H36.2201H36.2219ZM7.54328 8.17135H14.4698C15.823 8.17135 16.8508 8.33012 17.5694 8.64585C18.7366 9.15782 19.3158 10.1264 19.3158 11.5517C19.3158 12.7344 18.9332 13.6014 18.1771 14.1508C17.4389 14.7002 16.2073 14.9714 14.4716 14.9714H7.54506V8.17135H7.54328ZM7.54328 20.0874H14.3948C16.2055 20.0874 17.5586 20.3211 18.456 20.776C19.6232 21.3718 20.2024 22.4992 20.2024 24.1296C20.2024 25.4996 19.8377 26.486 19.1013 27.1015C18.2057 27.8471 16.6363 28.2199 14.3966 28.2199H7.54506V20.0874H7.54328ZM14.2732 33.3717C22.6369 33.3717 26.8197 30.3249 26.8197 24.2509C26.8197 20.8687 25.1948 18.5301 21.938 17.235C24.5513 15.9774 25.858 13.8065 25.858 10.7329C25.858 8.03043 24.7837 6.00934 22.6459 4.65897C20.9388 3.56905 18.624 3.02854 15.6925 3.02854H1.08325V33.3717H14.275H14.2732Z" fill="#1D1D1B"/>
</g>
<g clip-path="url(#clip1_29_22)">
<path d="M527.395 29.4588H520.608L520.535 29.638L514.151 48.0441L507.361 29.638L507.285 29.4588H499.874L500.02 29.8571L510.608 55.9087C509.759 58.2298 508.395 60.183 507.066 61.4895C505.368 63.0829 503.009 63.8066 500.427 63.375V68.9173C504.595 69.6038 508.321 67.9374 510.792 65.6562C514.259 62.4323 516.472 58.2298 520.164 48.4106L527.246 29.8585L527.395 29.4601V29.4588ZM379.229 56.8143H385.981V17.0663H379.229V56.8156V56.8143ZM392.66 56.8143H399.409V17.0663H392.66V56.8156V56.8143ZM563.883 28.8812C555.285 28.8812 550.528 35.7274 550.528 43.4831C550.528 51.7447 555.767 57.4331 564.549 57.4331C567.822 57.4424 571.06 56.7878 574.065 55.5131L573.069 50.9454C571.077 51.7049 568.789 52.2493 565.431 52.2493C560.711 52.2493 557.279 50.2523 557.094 44.641L575.467 44.6051C575.614 43.989 575.614 43.0834 575.614 41.8871C575.614 36.3448 572.887 28.8812 563.883 28.8812ZM569.307 39.9657H557.129C557.466 36.9582 558.829 33.5883 563.477 33.5883C568.529 33.5883 569.345 37.2477 569.308 39.9657H569.307ZM360.784 28.6966C352.223 28.6966 346.728 34.4952 346.728 43.0463C346.728 51.5974 352.224 57.4331 360.784 57.4331C369.343 57.4331 374.804 51.6332 374.804 43.0463C374.804 34.4593 369.343 28.6966 360.784 28.6966ZM360.746 52.1046C356.54 52.1046 353.405 48.481 353.405 43.0104C353.405 37.5398 356.54 33.9149 360.746 33.9149C364.952 33.9149 368.125 37.5013 368.125 43.0104C368.125 48.5195 364.989 52.1046 360.746 52.1046ZM342.151 45.4005C340.897 41.595 339.349 39.6378 336.913 38.5171C340.233 37.2477 343.221 34.3491 343.221 29.3127C343.221 26.2322 342.078 23.55 339.977 21.7761C337.467 19.6356 333.851 18.5136 328.355 18.5136H322.895C321.086 18.5136 319.39 18.6225 317.951 18.6225V56.7028H324.741V41.0492H328.025C332.304 41.0492 334.112 43.114 335.551 47.6073C336.805 51.3756 337.21 54.4933 337.617 56.74L344.813 56.7041C344.294 54.095 343.557 49.7451 342.153 45.3991L342.151 45.4005ZM328.686 36.0155H324.738V24.0612C325.217 24.0612 325.845 23.9882 326.805 23.9882H329.054C333.924 24.0254 336.507 26.053 336.506 29.9288C336.506 33.66 333.334 36.0168 328.685 36.0168L328.686 36.0155ZM542.445 34.1313C545.064 34.1313 546.8 34.4952 547.979 35.0741L549.161 30.2555C547.651 29.5663 545.067 28.8427 542.302 28.8427C532.558 28.8427 527.138 35.183 527.138 43.3702C527.138 51.5575 533.152 57.214 541.23 57.287C544.772 57.287 547.688 56.4558 549.089 55.8012L548.167 51.0543C546.801 51.6332 544.994 52.2121 542.412 52.2121C537.356 52.2121 534.074 48.9524 534.074 43.0821C534.036 37.828 536.729 34.1313 542.447 34.1313H542.445ZM425.493 41.0174H438.742V36.0168H425.493V41.0174ZM415.831 40.3641C413.323 39.5315 411.366 38.4441 411.366 36.5586C411.366 34.9294 412.399 33.7702 414.983 33.733C417.492 33.6972 419.263 34.3146 420.773 35.0011L422.101 30.5795C420.514 29.6726 417.932 28.8055 414.98 28.8055C408.745 28.8055 404.871 32.6123 404.871 37.2119C404.871 40.4013 407.157 43.4088 412.361 45.2212C415.902 46.4893 416.972 47.3577 416.972 49.3852C416.972 51.4128 415.644 52.4312 412.323 52.4312C409.851 52.4312 407.009 51.527 405.461 50.5829L404.136 55.2926C406.053 56.7054 409.079 57.3561 412.25 57.3561C419.262 57.3561 423.433 53.7683 423.468 48.878C423.468 44.7472 420.811 41.992 415.831 40.3628V40.3641ZM462.499 38.5184C465.819 37.249 468.809 34.3504 468.809 29.3141C468.809 26.2335 467.666 23.5514 465.561 21.7774C463.049 19.637 459.437 18.515 453.939 18.515H448.477C446.67 18.515 444.973 18.6239 443.534 18.6239V56.7041H450.324V41.0506H453.608C457.887 41.0506 459.692 43.1153 461.133 47.6086C462.388 51.3769 462.794 54.4946 463.201 56.7413L470.395 56.7054C469.878 54.0963 469.139 49.7464 467.739 45.4005C466.485 41.595 464.937 39.6378 462.5 38.5171L462.499 38.5184ZM454.272 36.0155H450.324V24.0612C450.803 24.0612 451.43 23.9882 452.39 23.9882H454.638C459.508 24.0254 462.091 26.053 462.091 29.9288C462.091 33.8047 458.92 36.0168 454.271 36.0168L454.272 36.0155ZM486.037 28.7697C477.699 28.7697 471.979 34.6757 471.979 43.118C471.979 51.5602 477.626 57.5034 486.037 57.5034C494.448 57.5034 500.057 51.7049 500.057 43.118C500.057 34.6757 494.338 28.7697 486.037 28.7697ZM486.001 52.1776C481.795 52.1776 478.659 48.5859 478.659 43.0808C478.659 37.5757 481.795 33.9879 486.001 33.9879C490.207 33.9879 493.379 37.5744 493.379 43.0808C493.379 48.5872 490.243 52.1776 486.001 52.1776ZM288.154 1.82329e-06H254.605C250.96 -0.0026538 248.003 2.89595 248 6.4744V68.5163C247.996 72.0934 250.946 74.996 254.588 75C254.594 75 254.599 75 254.605 75H288.141C291.793 75 294.744 72.1027 294.744 68.5163V6.48635C294.748 2.9079 291.798 0.00398525 288.154 1.82329e-06ZM292.529 68.5163C292.529 70.8758 290.574 72.7932 288.14 72.7932H254.605C252.201 72.7892 250.254 70.8771 250.25 68.5163V6.48635C250.254 4.12683 252.199 2.21346 254.603 2.20815H288.14C290.574 2.20815 292.529 4.13082 292.529 6.48635V68.5163ZM290.722 15.5805H252.057V59.4235H290.722V15.5805ZM270.873 56.7413H262.239C263.09 56.1995 264.492 55.4015 264.492 52.4299V39.023C265.882 38.8876 267.261 38.6698 268.623 38.3724V40.3999C269.213 40.3654 269.801 40.3654 270.357 40.2911C270.762 41.016 271.096 41.7782 271.427 42.539C270.495 42.6041 269.56 42.6532 268.625 42.6838V52.4312C268.625 55.4029 270.065 56.1995 270.874 56.7413H270.873ZM280.098 52.321H272.462C273.126 51.6704 274.085 50.2536 273.716 47.5024C273.201 43.8443 271.578 39.8569 269.399 37.2836C267.002 37.8997 264.16 38.2648 261.135 38.2648V48.0109C261.135 51.0211 262.572 51.7806 263.384 52.3223H254.752C255.6 51.7806 257.002 51.0211 257.002 48.0109V22.8649C257.002 19.8946 255.601 19.0966 254.752 18.5522H267.186C270.469 18.5522 273.051 19.062 274.97 20.3288C277.405 21.9593 278.77 24.676 278.735 27.3223C278.735 31.0893 276.483 34.1725 272.794 36.0168C272.646 36.0912 272.535 36.1257 272.387 36.2001C275.635 39.8582 277.256 45.0021 278.068 48.6629C278.474 50.6546 279.36 51.6691 280.096 52.321H280.098ZM288.695 56.7068H281.058C281.723 56.0535 282.718 54.6779 282.311 51.924C281.758 48.1198 279.913 44.0262 277.628 41.417C277.369 41.4874 277.11 41.5618 276.852 41.6335C276.519 40.8726 276.115 40.0746 275.708 39.3151C280.614 37.6846 282.018 34.4965 282.018 31.7771C282.018 29.6394 281.208 27.8641 279.695 26.7049C279.619 25.5444 279.288 24.3866 278.772 23.2964C280.211 23.5885 281.428 24.0626 282.46 24.7119C284.895 26.3411 286.26 29.0963 286.225 31.7068C286.225 35.3649 284.085 38.3352 280.58 40.2193C284.158 44.1351 285.855 49.3852 286.67 53.046C287.109 55.0404 287.995 56.0535 288.698 56.7068H288.695ZM274.526 27.3569C274.526 25.1447 273.639 23.2964 271.983 22.1399C270.727 21.2689 269.141 20.836 267.001 20.7975H261.133V36.0155C271.906 35.8363 274.525 31.0867 274.525 27.3569H274.526ZM268.623 33.8419C267.443 34.3146 266.041 34.6399 264.492 34.859V27.2852C264.492 24.2777 263.09 23.5155 262.239 22.9724H271.538C272.344 23.5368 272.951 24.3361 273.272 25.2563H268.623V33.8432V33.8419ZM252.057 68.5163C252.06 69.8959 253.198 71.0152 254.603 71.0192H288.14C289.579 71.0192 290.721 69.8946 290.721 68.5163V61.1974H252.057V68.5163ZM282.346 63.0085H287.401V64.3868C287.071 64.0602 286.405 64.0243 285.594 64.0243H284.155V65.5818H286.738L286.59 66.5246H284.154V68.2255H285.78C286.59 68.2255 287.29 68.191 287.66 67.717L287.439 69.2386H282.346C282.642 69.0262 282.829 68.4074 282.829 67.863V64.3855C282.829 63.8796 282.642 63.2236 282.346 63.0072V63.0085ZM276.738 63.6632C277.329 63.1586 278.14 62.8638 279.138 62.8638C280.136 62.8638 280.687 63.0471 281.017 63.2263V64.5701C280.612 64.1359 280.023 63.9168 279.099 63.9168C277.809 63.9168 277.071 64.8595 277.071 66.1289C277.071 67.3611 277.809 68.2999 279.099 68.2999C280.022 68.2999 280.868 68.0449 281.239 67.6121L281.016 69.0288C280.685 69.1696 280.095 69.3555 279.137 69.3555C277.071 69.3555 275.631 68.1578 275.631 66.1289C275.631 65.0427 276.074 64.2089 276.737 63.6645L276.738 63.6632ZM270.947 63.0085C270.8 63.0816 270.761 63.1918 270.726 63.2993C270.689 63.4812 270.837 63.6964 270.983 63.9154L272.239 65.7279L273.491 63.9526C273.638 63.7349 273.714 63.5184 273.714 63.375C273.752 63.2263 273.679 63.1201 273.53 63.0112H275.816C275.377 63.2263 274.968 63.8822 274.674 64.2447L272.793 66.8539V67.867C272.793 68.3742 272.977 69.0275 273.272 69.2041H270.983C271.279 69.0275 271.461 68.3729 271.461 67.867V66.8539L269.397 63.9885C269.063 63.5171 268.845 63.1918 268.402 63.0099H270.947V63.0085ZM263.126 63.5516C263.679 63.1201 264.417 62.8651 265.266 62.8651C266.115 62.8651 266.89 63.1188 267.443 63.5516C268.104 64.1345 268.587 64.9671 268.587 66.1262C268.587 67.2854 268.104 68.1193 267.443 68.661C266.89 69.1337 266.151 69.3873 265.266 69.3873C264.382 69.3873 263.679 69.1324 263.126 68.661C262.462 68.1193 261.982 67.2881 261.982 66.1262C261.982 64.9644 262.462 64.1345 263.126 63.5516ZM254.825 63.0085H258.036C258.847 63.0085 259.399 63.0085 259.806 63.1573C260.469 63.4069 260.839 64.0243 260.839 64.8582C260.801 65.6549 260.322 66.2365 259.362 66.417C259.806 66.5976 260.064 67.0677 260.36 67.6492C260.656 68.2614 260.914 68.8071 261.502 69.2373L259.622 69.2001C259.218 68.6238 258.958 67.8617 258.625 67.316C258.404 66.9575 258.11 66.741 257.592 66.741H256.635V67.863C256.635 68.3702 256.822 69.0249 257.114 69.2386H254.826C255.124 69.0262 255.306 68.3716 255.306 67.863V64.3855C255.306 63.8039 255.124 63.1905 254.826 63.0072L254.825 63.0085ZM265.782 6.5939C265.192 6.5939 264.712 6.81167 264.381 7.13698C263.974 7.53665 263.791 8.1169 263.791 8.87774C263.791 9.63857 263.974 10.252 264.381 10.6158C264.712 10.9412 265.192 11.1589 265.782 11.1589C266.371 11.1589 266.851 10.9412 267.185 10.6158C267.589 10.252 267.811 9.67442 267.811 8.87774C267.811 8.08105 267.588 7.53665 267.185 7.13698C266.851 6.81167 266.372 6.5939 265.782 6.5939ZM288.141 3.98609H254.605C253.2 3.98874 252.061 5.10676 252.059 6.48635V13.8026H290.723V6.48635C290.723 5.10809 289.581 3.98609 288.142 3.98609H288.141ZM259.842 12.1388C259.4 11.5214 259.143 10.7234 258.774 10.1458C258.551 9.74612 258.259 9.56421 257.741 9.56421H256.706V10.7234C256.706 11.2691 256.892 11.9569 257.223 12.1388H254.787C255.122 11.9583 255.305 11.2691 255.305 10.7234V7.06528C255.305 6.48635 255.122 5.83307 254.787 5.61531H258.183C259.031 5.61531 259.584 5.61531 260.029 5.79589C260.728 6.0495 261.097 6.70013 261.097 7.53532C261.097 8.37051 260.582 8.98396 259.549 9.20172C260.027 9.41948 260.286 9.88953 260.616 10.5056C260.913 11.1231 261.208 11.7392 261.799 12.1375H259.841L259.842 12.1388ZM268.069 11.5586C267.48 12.0645 266.705 12.3194 265.782 12.3194C264.858 12.3194 264.085 12.0645 263.494 11.5586C262.795 10.9783 262.312 10.1099 262.312 8.87906C262.312 7.64819 262.795 6.77714 263.494 6.19954C264.083 5.72684 264.859 5.47191 265.782 5.47191C266.704 5.47191 267.48 5.72684 268.069 6.19954C268.771 6.77714 269.251 7.68271 269.251 8.87906C269.251 10.0754 268.771 10.9783 268.069 11.5586ZM275.154 12.1388H270.171C270.503 11.9197 270.688 11.305 270.688 10.7234V7.06528C270.688 6.5222 270.501 5.83307 270.171 5.61531H272.57C272.274 5.83174 272.09 6.5222 272.09 7.06528V11.0872H273.38C274.23 11.0872 275.003 10.9398 275.375 10.4711L275.152 12.1375L275.154 12.1388ZM281.39 10.4724L281.132 12.1734H276.186C276.518 11.9583 276.702 11.305 276.702 10.7234V7.06528C276.702 6.5222 276.518 5.83307 276.186 5.61531H278.585C278.252 5.83174 278.068 6.5222 278.068 7.06528V11.0872H279.396C280.247 11.1217 281.019 10.9398 281.39 10.4711V10.4724ZM285.041 12.2477C284.228 12.2477 283.195 12.1017 282.571 11.7763V10.2188C282.715 10.4353 283.049 10.6902 283.27 10.7977C283.812 11.0899 284.423 11.2386 285.041 11.2319C285.963 11.2319 286.518 10.8349 286.518 10.2533C286.518 9.56554 285.817 9.45666 284.747 9.3106C283.383 9.13135 282.644 8.51524 282.644 7.4291C282.682 6.34029 283.714 5.50908 285.229 5.50908C286.259 5.50908 286.961 5.72552 287.403 5.94328V7.35607C287.257 7.10113 286.924 6.92055 286.591 6.77714C286.152 6.63241 285.691 6.55805 285.227 6.56071C284.486 6.56071 284.046 6.8515 284.046 7.21134C284.046 7.82877 284.635 7.90047 285.925 8.15408C287.217 8.41035 287.992 8.95342 287.957 10.0767C287.919 11.3807 286.885 12.2504 285.041 12.2504V12.2477ZM259.438 64.8914C259.438 64.2421 258.92 64.0243 258.11 64.0243H256.634V65.7637H258.11C258.921 65.7637 259.438 65.5088 259.438 64.8914ZM265.303 68.2985C265.803 68.3038 266.283 68.1087 266.632 67.7568C267.001 67.4302 267.185 66.8897 267.185 66.1262C267.185 65.3628 267.001 64.825 266.632 64.4598C266.299 64.1345 265.855 63.9526 265.303 63.9526C264.712 63.9526 264.267 64.1332 263.936 64.4598C263.57 64.8237 263.383 65.3654 263.383 66.1262C263.383 66.8871 263.57 67.4302 263.936 67.7568C264.267 68.0834 264.711 68.2985 265.303 68.2985ZM258.258 6.66561H256.704V8.51392H258.258C259.104 8.51392 259.657 8.26163 259.657 7.60702C259.657 6.91789 259.104 6.66428 258.258 6.66428V6.66561ZM583.618 27.5799C583.618 26.612 583.035 26.1857 581.855 26.1857H579.957V31.0867H580.711V28.9622H581.58L582.897 31.0867H583.743L582.324 28.929C583.057 28.84 583.616 28.4576 583.616 27.5799H583.618ZM580.712 28.3341V26.8164H581.744C582.27 26.8164 582.83 26.928 582.83 27.5361C582.83 28.289 582.258 28.3341 581.617 28.3341H580.712ZM581.628 24.3879C579.247 24.3879 577.232 26.1871 577.232 28.6262C577.232 31.0654 579.247 32.8872 581.628 32.8872C584.008 32.8872 586 31.088 586 28.6262C586 26.1645 583.986 24.3879 581.628 24.3879ZM581.626 32.1781C579.648 32.1781 578.103 30.6711 578.103 28.6262C578.103 26.5814 579.647 25.0969 581.626 25.0969C583.606 25.0969 585.129 26.6146 585.129 28.6262C585.129 30.6379 583.585 32.1781 581.626 32.1781Z" fill="#1D1D1B"/>
</g>
<defs>
<clipPath id="clip0_29_22">
<rect width="143" height="68" fill="white" transform="translate(0 3)"/>
</clipPath>
<clipPath id="clip1_29_22">
<rect width="338" height="75" fill="white" transform="translate(248)"/>
</clipPath>
</defs>
</svg>
