<svg width="205" height="44" viewBox="0 0 205 44" fill="none" xmlns="http://www.w3.org/2000/svg">
<g clip-path="url(#clip0_211_1104)">
<path d="M152.673 22.9517H158.108V24.1883H152.673V22.9517Z" fill="white"/>
<path d="M62.2806 15.4507L61.7937 27.8637V28.0783C61.7937 29.1304 62.1097 29.3465 63.8131 29.465V30.0399C62.5722 29.9438 62.0852 29.9198 61.4045 29.9198C60.7237 29.9198 60.2368 29.9438 58.9714 30.0399V29.465C60.6749 29.345 60.9176 29.1544 60.9664 27.8622L61.4777 16.1186V15.976C61.4777 14.8759 61.1374 14.6358 59.4584 14.5412V13.9439C60.4062 14.016 60.771 14.04 61.4533 14.04C62.3539 14.04 62.8408 14.016 63.7643 13.9199L68.2884 26.0222L72.8859 13.9199C73.9803 14.016 74.4916 14.04 75.2212 14.04C75.8287 14.04 76.218 14.016 77.1429 13.9439V14.5412C75.4884 14.6373 75.1236 14.8759 75.1236 15.952V16.1201L75.3907 27.8637C75.4151 29.1559 75.6334 29.3465 77.3856 29.4665V30.0413C75.8532 29.8973 75.2686 29.8492 74.3451 29.8492C73.4216 29.8492 72.837 29.8973 71.3046 30.0413V29.4665C72.9591 29.3705 73.324 29.1079 73.324 27.9838V27.8637L73.1057 15.4747L69.0928 26.1423L68.8013 26.9317L68.4609 27.8172L68.145 28.7267L67.8778 29.5161H67.513L67.2459 28.7507L66.9055 27.8172L66.5652 26.8837L66.2736 26.0463L62.2837 15.4507H62.2806Z" fill="white"/>
<path d="M80.5468 23.1751C80.7895 20.4242 81.7145 19.0134 83.2714 19.0134C84.8283 19.0134 85.6556 20.3521 85.8021 23.1751H80.5468ZM83.7094 29.4424C81.4962 29.4424 80.5224 27.7675 80.498 24.0365H87.7467C87.6979 20.3536 86.1654 18.3921 83.2943 18.3921C80.4232 18.3921 78.5503 20.7123 78.5503 24.3952C78.5503 28.0782 80.3743 30.2318 83.5125 30.2318C85.8967 30.2318 87.4537 28.773 87.7696 26.3087H86.7973C86.5058 28.3423 85.4358 29.4424 83.7079 29.4424" fill="white"/>
<path d="M89.1953 19.2774V18.8467C90.5812 18.7266 91.4085 18.584 92.4068 18.2959C92.5289 19.1814 92.5777 19.5641 92.625 20.2814V20.5441C93.1593 19.1814 94.2063 18.3919 95.4702 18.3919C96.734 18.3919 97.5873 19.1814 97.5873 20.3295C97.5873 21.0228 97.1736 21.4776 96.5661 21.4776C96.006 21.4776 95.5694 21.1429 95.5694 20.6641C95.5694 20.6161 95.5938 20.5216 95.6182 20.4255L95.6671 20.1869V19.9708C95.6671 19.6361 95.3756 19.3975 94.9375 19.3975C93.6721 19.3975 92.8692 20.9043 92.8692 23.2725V28.2716C92.8692 29.2997 93.1119 29.4918 94.5971 29.5623V30.041C93.26 29.921 92.7487 29.897 91.8969 29.897C91.0452 29.897 90.511 29.921 89.1724 30.041V29.5623C90.656 29.4902 90.9231 29.2997 90.9231 28.2716V20.451C90.8987 19.423 90.7766 19.3029 89.5127 19.2789H89.1968L89.1953 19.2774Z" fill="white"/>
<path d="M106.894 18.1772V22.1228H106.358C105.92 20.0412 105.021 19.0372 103.536 19.0372C101.712 19.0372 100.64 20.9747 100.64 24.395C100.64 27.8153 101.589 29.4421 103.462 29.4421C104.97 29.4421 105.871 28.3901 106.162 26.2845H107.159C106.843 28.8433 105.457 30.2315 103.267 30.2315C100.445 30.2315 98.5229 27.8873 98.5229 24.395C98.5229 20.9027 100.469 18.3919 103.339 18.3919C104.384 18.3919 105.042 18.6545 105.821 19.3959L106.477 18.1772H106.891H106.894Z" fill="white"/>
<path d="M110.888 23.1751C111.131 20.4242 112.056 19.0134 113.613 19.0134C115.17 19.0134 115.997 20.3521 116.143 23.1751H110.888ZM114.051 29.4424C111.837 29.4424 110.864 27.7675 110.839 24.0365H118.088C118.039 20.3536 116.507 18.3921 113.637 18.3921C110.767 18.3921 108.893 20.7123 108.893 24.3952C108.893 28.0782 110.717 30.2318 113.855 30.2318C116.24 30.2318 117.796 28.773 118.112 26.3087H117.14C116.849 28.3423 115.779 29.4424 114.051 29.4424Z" fill="white"/>
<path d="M124.825 29.5849C123.073 29.5849 122.15 27.7915 122.15 24.3712C122.15 20.9509 123.001 19.2055 124.752 19.2055C126.503 19.2055 127.477 21.0229 127.477 24.5393C127.477 27.8635 126.576 29.5849 124.825 29.5849ZM129.398 27.5529V13.7441C128.182 14.0623 127.088 14.2544 125.726 14.3985V14.8052C127.258 14.8052 127.454 14.9733 127.454 16.2159V20.4016C126.553 18.9669 125.848 18.5361 124.535 18.5361C121.933 18.5361 120.107 20.9524 120.107 24.3967C120.107 27.841 121.956 30.2573 124.607 30.2573C125.993 30.2573 126.943 29.6359 127.623 28.2957C127.721 29.2037 127.721 29.2998 127.964 30.2092C128.96 29.8986 129.374 29.8025 130.81 29.636L131.175 29.5879V29.1812C129.545 29.1332 129.4 29.0131 129.4 27.5544" fill="white"/>
<path d="M134.09 23.1751C134.333 20.4242 135.258 19.0134 136.815 19.0134C138.372 19.0134 139.199 20.3521 139.346 23.1751H134.092H134.09ZM137.253 29.4424C135.04 29.4424 134.066 27.7675 134.042 24.0365H141.29C141.242 20.3536 139.709 18.3921 136.839 18.3921C133.97 18.3921 132.095 20.7123 132.095 24.3952C132.095 28.0782 133.919 30.2318 137.058 30.2318C139.442 30.2318 140.999 28.773 141.315 26.3087H140.342C140.051 28.3423 138.981 29.4424 137.253 29.4424Z" fill="white"/>
<path d="M143.356 30.2558V26.2607L143.89 26.2367C144.328 28.4129 145.349 29.4649 147.053 29.4649C148.487 29.4649 149.559 28.5314 149.559 27.3128C149.559 26.4994 149.096 25.9501 147.904 25.4233L146.979 25.0166L145.86 24.5138C144.085 23.7004 143.525 23.031 143.525 21.6443C143.525 19.7548 145.033 18.4627 147.175 18.4627C148.124 18.4627 148.829 18.6773 149.657 19.2281L150.07 18.248H150.508V21.955H149.948C149.73 20.0415 148.927 19.1335 147.395 19.1335C146.105 19.1335 145.108 19.995 145.108 21.119C145.108 22.075 145.473 22.3872 147.686 23.3432L148.707 23.7739C150.556 24.5633 151.213 25.3287 151.213 26.7395C151.213 28.749 149.583 30.1838 147.297 30.1838C146.178 30.1838 145.302 29.8971 144.378 29.1798L143.794 30.2558H143.356Z" fill="white"/>
<path d="M164.739 22.0043C166.028 22.0043 166.758 22.219 167.317 22.7697C167.875 23.3205 168.193 24.3486 168.193 25.4967C168.193 27.8889 166.976 29.2276 164.812 29.2276H163.936C162.646 29.2276 162.428 29.0355 162.428 27.9835V22.0043H164.739ZM162.428 14.757H164.496C166.54 14.757 167.439 15.7371 167.439 17.9612C167.439 19.0613 167.172 19.8507 166.636 20.472C166.1 21.0693 165.444 21.2614 164.082 21.2614H162.428V14.7555V14.757ZM169.605 17.9132C169.605 16.669 169.069 15.569 168.145 14.8756C167.318 14.2783 166.369 14.0142 164.789 14.0142H158.392V14.613C160.143 14.709 160.387 14.8996 160.387 16.1918V27.7914C160.387 29.0835 160.191 29.2501 158.392 29.3942V29.9675H164.546C166.346 29.9675 167.32 29.7529 168.341 29.1301C169.557 28.3647 170.36 26.9059 170.36 25.3991C170.36 24.1069 169.802 22.9363 168.852 22.2174C168.341 21.8347 167.807 21.6201 166.93 21.452C168.681 20.8067 169.606 19.5866 169.606 17.9117" fill="white"/>
<path d="M174.329 23.1751C174.573 20.4242 175.497 19.0134 177.054 19.0134C178.61 19.0134 179.438 20.3521 179.584 23.1751H174.329ZM177.492 29.4424C175.278 29.4424 174.305 27.7675 174.28 24.0365H181.529C181.48 20.3536 179.948 18.3921 177.078 18.3921C174.208 18.3921 172.334 20.7123 172.334 24.3952C172.334 28.0782 174.158 30.2318 177.296 30.2318C179.68 30.2318 181.237 28.773 181.553 26.3087H180.581C180.289 28.3423 179.219 29.4424 177.492 29.4424Z" fill="white"/>
<path d="M182.817 19.3736V18.9669C184.227 18.7748 185.055 18.5842 186.029 18.2495C186.151 18.7988 186.224 19.4216 186.273 20.3311C187.147 19.0389 188.146 18.4656 189.556 18.4656C190.966 18.4656 192.281 19.207 192.768 20.3791C193.01 20.9524 193.132 21.6233 193.132 22.5313V28.2718C193.132 29.2998 193.377 29.4919 194.859 29.5624V30.0412C193.569 29.9211 193.084 29.8971 192.207 29.8971C191.331 29.8971 190.821 29.9211 189.556 30.0412V29.5624C190.87 29.5144 191.186 29.2758 191.186 28.3183V22.4577C191.186 20.3761 190.554 19.5402 188.997 19.5402C187.343 19.5402 186.467 20.5682 186.467 22.5297V28.3183C186.467 29.2743 186.783 29.5144 188.048 29.5624V30.0412C186.783 29.9211 186.297 29.8971 185.421 29.8971C184.545 29.8971 184.058 29.9211 182.794 30.0412V29.5624C184.278 29.4904 184.521 29.2998 184.521 28.2718V20.5232C184.496 19.5417 184.351 19.3991 183.135 19.3991C183.061 19.3991 182.941 19.3751 182.819 19.3751" fill="white"/>
<path d="M195.803 29.9691L202.396 19.3015H199.404C197.823 19.3015 197.434 19.6362 196.557 21.7883H196.071L196.629 18.6787H204.998L198.382 29.3463H201.228C202.883 29.3463 203.564 28.6994 204.293 26.5233H204.805L204.171 29.9676H195.803V29.9691Z" fill="white"/>
<path d="M22.3675 44C10.01 43.9955 -0.00457756 34.1429 1.56972e-06 21.9925C0.0045807 9.84215 10.0252 -0.00450081 22.3828 1.5434e-06C34.7373 0.0045039 44.7503 9.85265 44.7503 22C44.7366 34.1474 34.722 43.991 22.3675 44ZM21.8058 2.14312C14.4349 2.63988 8.68814 5.80203 4.98362 12.0648C1.2501 18.3801 1.37679 24.8845 4.61882 31.4369C4.76688 31.3334 4.85235 31.2749 4.93172 31.2163C9.57649 27.649 14.2228 24.0831 18.8706 20.5202C19.156 20.3356 19.3331 20.0265 19.3438 19.6903C19.359 19.3541 19.4338 19.0239 19.4796 18.6893C19.8261 16.2415 20.1726 13.7937 20.5191 11.3459L21.5509 4.03111C21.6364 3.42779 21.7158 2.82148 21.8104 2.14462M40.101 31.3499C43.7231 24.787 43.259 16.7758 38.9043 10.6586C35.2715 5.51388 29.3721 2.36974 23.004 2.18664C23.2055 3.60188 23.3978 4.9661 23.5917 6.33181L24.6235 13.5836C24.9227 15.6997 25.2188 17.8143 25.5317 19.9244C25.5653 20.097 25.6599 20.2531 25.7958 20.3672C30.1246 23.7019 34.458 27.0321 38.7944 30.3564C39.2279 30.6865 39.6629 31.0167 40.0964 31.3529M39.5057 32.489C39.3469 32.417 39.2569 32.3719 39.1622 32.3359C33.6535 30.1373 28.1403 27.9431 22.6255 25.7535C22.4561 25.6934 22.2714 25.6934 22.1019 25.7535C17.7197 27.5109 13.3405 29.2743 8.96288 31.0452L5.29042 32.525C9.56886 38.6557 15.3874 41.9544 22.9567 41.7668C30.0727 41.5897 35.5234 38.297 39.5072 32.4875" fill="white"/>
</g>
<defs>
<clipPath id="clip0_211_1104">
<rect width="205" height="44" fill="white"/>
</clipPath>
</defs>
</svg>
