<svg width="527" height="511" viewBox="0 0 527 511" fill="none" xmlns="http://www.w3.org/2000/svg">
<path d="M488.773 3.06946H38.1654C18.8062 3.06946 3.073 18.785 3.073 38.1224V156.541C3.073 175.879 18.8062 191.594 38.1654 191.594H89.7898C109.149 191.594 124.882 207.31 124.882 226.647V472.878C124.882 492.215 140.615 507.931 159.975 507.931H389.15C405.498 507.931 419.695 496.635 423.382 480.674L523.005 45.9802C528.045 24.003 511.328 3.06946 488.773 3.06946ZM466.403 92.8812C466.403 93.8634 466.157 94.8457 465.665 95.6437C465.174 96.5032 464.498 97.1784 463.637 97.6695L440.283 111.114C439.423 111.605 438.44 111.85 437.518 111.85C436.596 111.85 435.612 111.605 434.752 111.114L411.398 97.6695C410.538 97.1784 409.862 96.4418 409.37 95.6437C408.878 94.7843 408.633 93.8634 408.633 92.8812V65.9316C408.633 64.9493 408.878 63.9671 409.37 63.1691C409.862 62.371 410.538 61.6343 411.398 61.1432L431.986 49.2952L434.752 47.6991C435.612 47.208 436.596 46.9624 437.518 46.9624C438.44 46.9624 439.423 47.208 440.283 47.6991L443.049 49.2952L463.637 61.1432C464.498 61.6343 465.174 62.371 465.665 63.1691C466.157 64.0285 466.403 64.9493 466.403 65.9316V92.8812Z" fill="white"/>
<g clip-path="url(#clip0_206_524)">
<path d="M182.218 440.355H187.145V445.53H182.218V455.275C182.218 456.927 183.203 457.808 185.12 457.808H187.2V463.038H185.065C182.218 463.038 180.028 462.543 178.495 461.497C176.907 460.45 176.141 458.634 176.141 456.046V445.585H172.856V440.41H176.141V434.023H182.273V440.355H182.218Z" fill="#1D1D1B"/>
<path d="M216.108 463.038H209.976V450.21C209.976 446.906 208.498 445.255 205.596 445.255C204.118 445.255 202.913 445.805 201.983 446.906C201.052 448.008 200.614 449.384 200.614 450.981V462.983H194.482V430.995H200.614V442.447H201.764C203.078 440.685 205.103 439.804 207.896 439.804C210.688 439.804 212.714 440.63 214.082 442.227C215.451 443.823 216.163 446.136 216.163 449.109V463.038H216.108Z" fill="#1D1D1B"/>
<path d="M230.289 436.501H224.047V430.995H230.289V436.501ZM230.234 440.355V462.983H224.102V440.355H230.234Z" fill="#1D1D1B"/>
<path d="M260.127 463.038H253.995V450.21C253.995 448.613 253.612 447.402 252.9 446.576C252.134 445.75 251.094 445.31 249.615 445.31C248.137 445.31 246.933 445.86 246.002 446.961C245.071 448.063 244.633 449.439 244.633 451.036V463.038H238.501V440.355H244.414V442.447H245.564C246.933 440.685 249.013 439.804 251.805 439.804C254.598 439.804 256.678 440.63 258.047 442.226C259.416 443.823 260.127 446.136 260.127 449.109V463.038Z" fill="#1D1D1B"/>
<path d="M290.569 463.038H284.108L278.907 452.412H277.757L274.198 456.431V463.038H268.011V430.995H274.198V449.219L282.52 440.355H289.364L282.958 447.347L290.514 462.983L290.569 463.038Z" fill="#1D1D1B"/>
<path d="M315.315 469.81H292.758V465.791H315.315V469.81Z" fill="#1D1D1B"/>
<path d="M330.317 440.355L326.375 462.983H320.243L324.185 440.355H330.317ZM331.029 436.501H324.842L325.827 430.995H332.069L331.083 436.501H331.029Z" fill="#1D1D1B"/>
<path d="M356.159 463.038H350.027L352.217 450.705C352.381 449.99 352.436 449.274 352.436 448.613C352.436 446.411 351.232 445.31 348.823 445.31C347.344 445.31 346.085 445.805 344.99 446.851C343.95 447.897 343.238 449.274 342.91 451.091L340.829 463.093H334.697L338.639 440.465H344.607L344.224 442.502H345.373C346.906 440.795 349.042 439.914 351.779 439.914C354.024 439.914 355.721 440.575 356.926 441.896C358.13 443.217 358.732 444.924 358.732 447.072C358.732 447.732 358.623 448.668 358.459 449.824L356.159 463.148V463.038Z" fill="#1D1D1B"/>
<path d="M383.534 440.355H389.447L385.724 461.772C385.122 465.075 383.753 467.663 381.563 469.535C379.373 471.407 376.635 472.288 373.35 472.288C370.449 472.288 368.04 471.627 366.233 470.306C364.426 468.984 363.441 467.112 363.386 464.635H369.408C369.518 465.571 369.956 466.231 370.722 466.727C371.489 467.167 372.529 467.443 373.734 467.443C376.854 467.443 378.825 465.351 379.592 461.221L379.811 460.12H378.661C377.566 461.772 375.705 462.653 373.077 462.653C370.449 462.653 368.423 461.772 366.945 460.01C365.466 458.248 364.755 455.991 364.755 453.183C364.755 449.549 365.795 446.411 367.821 443.768C369.846 441.125 372.584 439.804 375.978 439.804C377.457 439.804 378.661 440.079 379.702 440.685C380.742 441.235 381.508 441.951 382.001 442.777H383.151L383.534 440.41V440.355ZM376.964 444.979C375.321 444.979 373.898 445.695 372.693 447.127C371.544 448.558 370.941 450.375 370.941 452.632C370.941 454.119 371.379 455.33 372.201 456.211C373.022 457.092 374.172 457.532 375.54 457.532C377.402 457.532 378.88 456.762 379.975 455.275C381.07 453.788 381.618 452.027 381.618 450.045C381.618 448.503 381.18 447.237 380.358 446.356C379.482 445.42 378.388 444.979 376.964 444.979Z" fill="#1D1D1B"/>
</g>
<defs>
<clipPath id="clip0_206_524">
<rect width="216.646" height="41.2929" fill="white" transform="translate(172.801 430.995)"/>
</clipPath>
</defs>
</svg>
