<svg width="163" height="22" viewBox="0 0 163 22" fill="none" xmlns="http://www.w3.org/2000/svg">
<path fill-rule="evenodd" clip-rule="evenodd" d="M138.112 2.63349e-06H154.544C159.694 2.63349e-06 161.642 3.47293 161.642 6.46869C161.642 11.5705 157.031 12.4853 157.031 12.4853L163 21.9964H150.986L148.405 15.6784V21.9964H126.558L123.978 15.6784V21.9964H113.685V2.63349e-06H130.116C135.266 2.63349e-06 137.214 3.47293 137.214 6.46869C137.214 11.5705 132.603 12.4853 132.603 12.4853L138.112 21.2645V2.63349e-06ZM56.0859 4.19048V8.35584H57.5738C58.3609 8.35584 58.9467 7.87867 59.2198 7.3154C59.4354 6.87052 59.5936 5.99511 59.1982 5.18428C58.7238 4.19765 57.8002 4.20124 57.5846 4.19048H56.0895H56.0859ZM45.6134 2.63349e-06C45.6134 2.63349e-06 60.5891 0.00359037 63.1479 2.63349e-06C68.0356 -0.0035851 69.1892 3.65949 69.1964 5.81214C69.2108 9.67613 66.4974 10.6269 66.4974 10.6269C66.4974 10.6269 69.4192 11.7247 69.4192 15.847C69.4192 22.2655 63.5289 22 62.616 22H45.6098V2.63349e-06H45.6134ZM112.664 22V16.9485H107.895V12.9374H112.614V8.56034H107.895V4.32323H112.664V2.63349e-06H96.9986V22H112.664ZM84.7255 22H95.6113V2.63349e-06H84.7255V8.33432H81.1927V2.63349e-06H70.0553V22H81.1927V12.7544H84.7255V22ZM44.6359 22V16.9485H39.8668V12.9374H44.5856V8.56034H39.8668V4.32323H44.6359V2.63349e-06H28.9702V22H44.6359ZM16.8732 2.63349e-06H27.5794V22H16.8732V2.63349e-06ZM15.8094 22V15.926H11.0404V2.63349e-06H0V22H15.8094ZM123.787 4.18689V9.39987H125.092C126.504 9.39987 127.007 8.73255 127.316 8.02936C127.561 7.47326 127.726 6.4651 127.316 5.43184C127.094 4.87215 126.504 4.18689 125.092 4.18689H123.787ZM148.215 4.18689V9.39987H149.519C150.932 9.39987 151.435 8.73255 151.744 8.02936C151.988 7.47326 152.154 6.4651 151.744 5.43184C151.521 4.87215 150.932 4.18689 149.519 4.18689H148.215ZM56.0824 13.0773V17.5835H57.5846C58.3716 17.5835 59.1731 17.0669 59.4678 16.4605C59.7014 15.9798 59.8631 15.0398 59.4462 14.1536C58.8999 12.9912 57.6996 13.0917 57.581 13.0809H56.0824V13.0773Z" fill="white"/>
</svg>
