<svg width="150" height="17" viewBox="0 0 150 17" fill="none" xmlns="http://www.w3.org/2000/svg">
<g clip-path="url(#clip0_624_82)">
<path d="M11.3132 14.9731H9.64222L2.29546 6.06968V14.9731H0V1.99804H1.67311L9.01986 10.8881V1.99804H11.3132V14.9731Z" fill="white"/>
<path d="M22.6455 4.23833V7.37207H29.0395V9.61681H22.6455V12.7283H30.3652V14.9731H20.3479V2.00248H30.3652V4.225L22.6455 4.23833Z" fill="white"/>
<path d="M56.2185 1.99804L52.2691 14.9731H49.85L46.7553 5.45627L43.6414 14.9731H41.2223L37.2729 1.99804H39.5684L42.467 11.4971L45.5618 1.99804H47.9467L51.0457 11.5059L53.923 1.99804H56.2185Z" fill="white"/>
<path d="M72.2634 11.0681C72.2698 10.1147 71.5345 9.339 70.6201 9.33233C70.6116 9.33233 70.601 9.33233 70.5924 9.33233H65.718V12.8039H70.5924C71.5153 12.8039 72.2634 12.0238 72.2634 11.0614V11.0681ZM70.2195 4.17832H65.718V7.23872H70.2195C71.0294 7.26984 71.7114 6.61198 71.7434 5.76742C71.7753 4.92287 71.1423 4.21166 70.3324 4.17832C70.2941 4.17832 70.2578 4.17832 70.2195 4.17832ZM74.5589 11.2637C74.561 13.3062 72.9774 14.9664 71.0187 14.9731H63.4929V1.99804H70.682C72.5469 1.99804 74.058 3.57158 74.0601 5.51628V5.53183C74.0601 6.88534 73.101 7.81436 72.5853 8.14773C73.2609 8.48111 74.5589 9.50124 74.5589 11.2637Z" fill="white"/>
<path d="M115.636 14.9731H112.897L109.411 10.2613L105.941 14.9731H103.204L108.042 8.42555L103.291 1.99804H106.03L109.411 6.56086L112.808 1.99804H115.53L110.781 8.42555L115.636 14.9731Z" fill="white"/>
<path d="M125.4 4.23833V7.37207H131.794V9.61681H125.4V12.7283H133.122V14.9731H123.104V2.00248H133.122V4.225L125.4 4.23833Z" fill="white"/>
<path d="M150 11.4326C150 14.3085 147.402 15.2553 144.716 15.2553C142.928 15.2709 141.168 14.7775 139.629 13.8263L140.784 11.9149C142.048 12.6394 143.472 13.1017 144.806 13.1017C146.511 13.1017 147.617 12.6394 147.617 11.5637C147.617 10.3747 146.104 9.93019 144.45 9.39234C142.297 8.70558 139.878 7.9277 139.878 5.31181C139.863 4.30056 140.33 3.34933 141.123 2.76925C142.012 2.1025 143.329 1.74912 144.959 1.74912C146.647 1.74912 148.124 2.19362 149.761 3.17819L148.64 5.03399C147.361 4.29167 146.168 3.88273 144.853 3.88273C143.109 3.88273 142.272 4.43836 142.272 5.21624C142.272 6.44084 143.819 6.86756 145.528 7.42319C147.617 8.11217 150 8.96562 150 11.4326Z" fill="white"/>
<path d="M96.4158 4.25167C96.2943 4.03386 96.1217 3.84717 95.9043 3.71604L90.7464 0.617859L90.0537 0.195581C89.8364 0.0644529 89.5955 0 89.3547 0C89.1138 0 88.873 0.0644529 88.6556 0.195581L87.9629 0.617859L82.805 3.71604C82.5898 3.84717 82.415 4.03386 82.2935 4.25167C82.172 4.46947 82.106 4.72062 82.106 4.98065V12.0238C82.106 12.2794 82.1699 12.5305 82.2935 12.7528C82.4171 12.975 82.594 13.1595 82.805 13.2884L88.6556 16.8066C88.8709 16.9355 89.1138 17.0022 89.3547 17.0022C89.5955 17.0022 89.8364 16.9378 90.0537 16.8066L95.9043 13.2884C96.1174 13.1595 96.2922 12.975 96.4158 12.7528C96.5394 12.5305 96.6034 12.2794 96.6034 12.0238V4.98065C96.6034 4.72062 96.5352 4.46947 96.4158 4.25167ZM95.186 9.94574C95.186 10.3391 94.8813 10.6569 94.504 10.6569C94.3846 10.6569 94.2674 10.6236 94.163 10.5614L90.0601 8.08328C89.8406 7.95882 89.5976 7.89659 89.3547 7.89437C89.1117 7.89437 88.8687 7.95882 88.6492 8.08328L84.5463 10.5614C84.4419 10.6236 84.3247 10.6569 84.2053 10.6569C83.8281 10.6569 83.5233 10.3391 83.5233 9.94574V5.40737C83.5233 5.15401 83.6533 4.91842 83.8643 4.79174L88.6662 1.90247L89.0264 1.68022C89.1287 1.62021 89.2417 1.58687 89.3547 1.58465C89.4676 1.58465 89.5806 1.61799 89.6829 1.68022L90.0431 1.90247L94.845 4.79174C95.056 4.91842 95.186 5.15401 95.186 5.40737V9.94574Z" fill="white"/>
</g>
<defs>
<clipPath id="clip0_624_82">
<rect width="150" height="17" fill="white"/>
</clipPath>
</defs>
</svg>
