<svg width="262" height="59" viewBox="0 0 262 59" fill="none" xmlns="http://www.w3.org/2000/svg">
<g clip-path="url(#clip0_211_1142)">
<path d="M216.572 23.1742H211.311L211.255 23.3153L206.306 37.7947L201.043 23.3153L200.984 23.1742H195.239L195.352 23.4876L203.56 43.9815C202.902 45.8074 201.845 47.3439 200.815 48.3718C199.498 49.6252 197.67 50.1945 195.668 49.855V54.2149C198.899 54.755 201.787 53.4441 203.703 51.6495C206.39 49.1134 208.106 45.8074 210.968 38.083L216.457 23.4887L216.572 23.1753V23.1742ZM101.722 44.6939H106.956V13.4255H101.722V44.695V44.6939ZM112.133 44.6939H117.364V13.4255H112.133V44.695V44.6939ZM244.856 22.7199C238.192 22.7199 234.504 28.1055 234.504 34.2067C234.504 40.7059 238.565 45.1807 245.372 45.1807C247.91 45.188 250.42 44.673 252.748 43.6703L251.977 40.077C250.432 40.6745 248.659 41.1028 246.056 41.1028C242.397 41.1028 239.737 39.5318 239.594 35.1176L253.835 35.0894C253.949 34.6047 253.949 33.8923 253.949 32.9512C253.949 28.5912 251.835 22.7199 244.856 22.7199ZM249.06 31.4397H239.621C239.882 29.0738 240.938 26.4228 244.541 26.4228C248.458 26.4228 249.09 29.3015 249.061 31.4397H249.06ZM87.4242 22.5747C80.7882 22.5747 76.5292 27.1362 76.5292 33.8631C76.5292 40.5899 80.7893 45.1807 87.4242 45.1807C94.0591 45.1807 98.2919 40.6181 98.2919 33.8631C98.2919 27.108 94.0591 22.5747 87.4242 22.5747ZM87.3948 40.9889C84.1345 40.9889 81.7042 38.1384 81.7042 33.8349C81.7042 29.5313 84.1345 26.6797 87.3948 26.6797C90.6552 26.6797 93.1148 29.501 93.1148 33.8349C93.1148 38.1687 90.6834 40.9889 87.3948 40.9889ZM72.9806 35.715C72.0091 32.7214 70.8092 31.1817 68.9207 30.3001C71.4946 29.3015 73.8106 27.0213 73.8106 23.0593C73.8106 20.636 72.924 18.526 71.2954 17.1305C69.3504 15.4467 66.547 14.5641 62.2868 14.5641H58.055C56.6528 14.5641 55.3376 14.6497 54.2225 14.6497V44.6062H59.4855V32.2921H62.0311C65.3481 32.2921 66.7492 33.9163 67.8653 37.4511C68.8368 40.4155 69.1512 42.8681 69.4667 44.6354L75.0441 44.6072C74.6417 42.5547 74.0706 39.1328 72.9827 35.714L72.9806 35.715ZM62.5436 28.3322H59.4834V18.9282C59.8544 18.9282 60.3418 18.8707 61.0858 18.8707H62.8287C66.6036 18.9 68.6063 20.495 68.6052 23.544C68.6052 26.4792 66.1466 28.3332 62.5426 28.3332L62.5436 28.3322ZM228.239 26.85C230.269 26.85 231.614 27.1362 232.528 27.5916L233.444 23.801C232.273 23.2589 230.271 22.6896 228.128 22.6896C220.575 22.6896 216.373 27.6773 216.373 34.1179C216.373 40.5586 221.035 45.0083 227.297 45.0658C230.042 45.0658 232.303 44.4119 233.389 43.8969L232.674 40.1627C231.615 40.6181 230.214 41.0735 228.212 41.0735C224.294 41.0735 221.749 38.5092 221.749 33.8913C221.72 29.758 223.808 26.85 228.24 26.85H228.239ZM137.584 32.267H147.853V28.3332H137.584V32.267ZM130.093 31.7531C128.149 31.0981 126.633 30.2427 126.633 28.7594C126.633 27.4778 127.434 26.5659 129.436 26.5366C131.381 26.5084 132.754 26.9941 133.925 27.5342L134.954 24.0558C133.724 23.3424 131.722 22.6603 129.434 22.6603C124.601 22.6603 121.598 25.655 121.598 29.2733C121.598 31.7823 123.371 34.1482 127.404 35.574C130.149 36.5716 130.978 37.2547 130.978 38.8497C130.978 40.4447 129.949 41.2459 127.375 41.2459C125.458 41.2459 123.255 40.5346 122.055 39.7919L121.028 43.4969C122.514 44.6083 124.86 45.1201 127.318 45.1201C132.753 45.1201 135.986 42.2977 136.014 38.4507C136.014 35.2011 133.954 33.0337 130.093 31.752V31.7531ZM166.268 30.3012C168.842 29.3026 171.159 27.0223 171.159 23.0604C171.159 20.637 170.274 18.5271 168.642 17.1316C166.695 15.4478 163.895 14.5651 159.633 14.5651H155.4C153.998 14.5651 152.683 14.6508 151.568 14.6508V44.6072H156.831V32.2931H159.377C162.694 32.2931 164.093 33.9174 165.21 37.4521C166.182 40.4165 166.497 42.8691 166.812 44.6365L172.389 44.6083C171.988 42.5557 171.415 39.1338 170.33 35.715C169.358 32.7214 168.158 31.1817 166.269 30.3001L166.268 30.3012ZM159.891 28.3322H156.831V18.9282C157.202 18.9282 157.688 18.8707 158.432 18.8707H160.175C163.95 18.9 165.952 20.495 165.952 23.544C165.952 26.593 163.494 28.3332 159.89 28.3332L159.891 28.3322ZM184.514 22.6321C178.051 22.6321 173.617 27.2783 173.617 33.9195C173.617 40.5607 177.994 45.236 184.514 45.236C191.034 45.236 195.382 40.6745 195.382 33.9195C195.382 27.2783 190.949 22.6321 184.514 22.6321ZM184.486 41.0464C181.225 41.0464 178.795 38.2209 178.795 33.8902C178.795 29.5595 181.225 26.7372 184.486 26.7372C187.746 26.7372 190.205 29.5585 190.205 33.8902C190.205 38.2219 187.774 41.0464 184.486 41.0464ZM31.1256 1.43432e-06H5.11948C2.29408 -0.00208765 0.00209924 2.27815 3.2381e-06 5.0932V53.8995C-0.00314076 56.7135 2.2836 58.9969 5.10691 59C5.1111 59 5.11529 59 5.11948 59H31.1151C33.9458 59 36.2336 56.7208 36.2336 53.8995V5.1026C36.2367 2.28755 33.95 0.00313506 31.1256 1.43432e-06ZM34.5169 53.8995C34.5169 55.7556 33.0015 57.264 31.1141 57.264H5.11948C3.25614 57.2608 1.74702 55.7567 1.74388 53.8995V5.1026C1.74702 3.24644 3.25509 1.74126 5.11844 1.73708H31.1141C33.0015 1.73708 34.5169 3.24958 34.5169 5.1026V53.8995ZM33.1158 12.2567H3.14505V46.7465H33.1158V12.2567ZM17.7301 44.6365H11.0375C11.6967 44.2103 12.7835 43.5825 12.7835 41.2448V30.6981C13.8609 30.5915 14.9298 30.4202 15.9862 30.1863V31.7813C16.4431 31.7541 16.899 31.7541 17.3297 31.6956C17.6441 32.2659 17.903 32.8655 18.1597 33.464C17.4366 33.5152 16.7125 33.5539 15.9872 33.5779V41.2459C15.9872 43.5836 17.1034 44.2103 17.7311 44.6365H17.7301ZM24.8806 41.1592H18.9615C19.476 40.6474 20.2201 39.5328 19.934 37.3685C19.5347 34.4908 18.2761 31.3541 16.5877 29.3297C14.7296 29.8144 12.5267 30.1017 10.1813 30.1017V37.7686C10.1813 40.1366 11.2953 40.7341 11.9252 41.1602H5.23372C5.89081 40.7341 6.97759 40.1366 6.97759 37.7686V17.987C6.97759 15.6504 5.89186 15.0226 5.23372 14.5944H14.8722C17.4167 14.5944 19.4184 14.9955 20.9055 15.992C22.793 17.2747 23.8514 19.4118 23.8242 21.4936C23.8242 24.4569 22.0782 26.8824 19.2193 28.3332C19.104 28.3917 19.0181 28.4189 18.9038 28.4774C21.4211 31.3551 22.6777 35.4017 23.3075 38.2815C23.6219 39.8483 24.3084 40.6463 24.8795 41.1592H24.8806ZM31.5448 44.6093H25.6247C26.1403 44.0954 26.9116 43.0133 26.5961 40.8469C26.1675 37.8543 24.737 34.6339 22.9659 32.5814C22.7657 32.6368 22.5645 32.6953 22.3643 32.7517C22.1065 32.1531 21.7932 31.5254 21.4777 30.9279C25.2809 29.6452 26.3687 27.1372 26.3687 24.998C26.3687 23.3163 25.741 21.9197 24.5683 21.0079C24.5096 20.0949 24.2528 19.1841 23.8525 18.3265C24.9686 18.5563 25.9118 18.9292 26.7114 19.44C28.5989 20.7217 29.6574 22.8891 29.6301 24.9427C29.6301 27.8204 27.9711 30.157 25.2547 31.6392C28.0277 34.7196 29.343 38.8497 29.9749 41.7295C30.3155 43.2984 31.0019 44.0954 31.5469 44.6093H31.5448ZM20.5618 21.5207C20.5618 19.7805 19.8743 18.3265 18.5905 17.4167C17.6169 16.7315 16.3876 16.391 14.7286 16.3607H10.1803V28.3322C18.5307 28.1912 20.5607 24.4549 20.5607 21.5207H20.5618ZM15.9862 26.6223C15.0713 26.9941 13.9845 27.2501 12.7835 27.4224V21.4643C12.7835 19.0984 11.6967 18.4989 11.0375 18.0716H18.2457C18.8703 18.5156 19.3408 19.1444 19.5892 19.8683H15.9862V26.6233V26.6223ZM3.14505 53.8995C3.14715 54.9848 4.02956 55.8653 5.11844 55.8685H31.1141C32.2302 55.8685 33.1147 54.9837 33.1147 53.8995V48.142H3.14505V53.8995ZM26.6234 49.5667H30.5419V50.651C30.2862 50.394 29.7695 50.3658 29.1407 50.3658H28.0256V51.591H30.0273L29.9131 52.3327H28.0246V53.6707H29.2853C29.9131 53.6707 30.4559 53.6436 30.742 53.2707L30.5712 54.4677H26.6234C26.8529 54.3006 26.9975 53.8138 26.9975 53.3856V50.6499C26.9975 50.2519 26.8529 49.7359 26.6234 49.5657V49.5667ZM22.2763 50.0817C22.7343 49.6848 23.3631 49.4529 24.1365 49.4529C24.9099 49.4529 25.3375 49.597 25.5932 49.738V50.7951C25.2788 50.4535 24.8229 50.2812 24.1061 50.2812C23.1063 50.2812 22.5341 51.0228 22.5341 52.0214C22.5341 52.9907 23.1063 53.7292 24.1061 53.7292C24.8219 53.7292 25.4779 53.5287 25.7651 53.1882L25.5922 54.3027C25.3354 54.4134 24.8785 54.5596 24.1354 54.5596C22.5341 54.5596 21.418 53.6175 21.418 52.0214C21.418 51.167 21.7617 50.511 22.2752 50.0827L22.2763 50.0817ZM17.7877 49.5667C17.6735 49.6242 17.6431 49.7109 17.6158 49.7955C17.5875 49.9386 17.7018 50.1078 17.815 50.2801L18.7885 51.706L19.759 50.3094C19.8732 50.1381 19.9319 49.9678 19.9319 49.855C19.9613 49.738 19.9047 49.6545 19.7894 49.5688H21.5616C21.221 49.738 20.9045 50.254 20.676 50.5392L19.2182 52.5917V53.3887C19.2182 53.7877 19.3608 54.3016 19.5892 54.4406H17.815C18.0445 54.3016 18.1859 53.7867 18.1859 53.3887V52.5917L16.5857 50.3376C16.3268 49.9668 16.1581 49.7109 15.8143 49.5678H17.7877V49.5667ZM11.725 49.9939C12.1537 49.6545 12.7259 49.4539 13.384 49.4539C14.0422 49.4539 14.6427 49.6534 15.0713 49.9939C15.5838 50.4525 15.9579 51.1074 15.9579 52.0193C15.9579 52.9312 15.5838 53.5872 15.0713 54.0133C14.6427 54.3852 14.0694 54.5847 13.384 54.5847C12.6986 54.5847 12.1537 54.3842 11.725 54.0133C11.2105 53.5872 10.8384 52.9333 10.8384 52.0193C10.8384 51.1053 11.2105 50.4525 11.725 49.9939ZM5.29031 49.5667H7.77931C8.40811 49.5667 8.83569 49.5667 9.15114 49.6837C9.66571 49.8801 9.95181 50.3658 9.95181 51.0218C9.92247 51.6485 9.55148 52.106 8.80739 52.2481C9.15114 52.3901 9.35131 52.7599 9.58082 53.2174C9.81033 53.6989 10.0105 54.1282 10.4664 54.4667L9.00861 54.4374C8.69526 53.9841 8.49404 53.3845 8.23623 52.9552C8.06436 52.6732 7.83695 52.5029 7.43556 52.5029H6.69358V53.3856C6.69358 53.7846 6.8382 54.2996 7.06457 54.4677H5.29136C5.52192 54.3006 5.6634 53.7856 5.6634 53.3856V50.6499C5.6634 50.1924 5.52192 49.7098 5.29136 49.5657L5.29031 49.5667ZM13.7833 5.1872C13.3264 5.1872 12.9543 5.35851 12.6976 5.61442C12.3821 5.92883 12.2406 6.3853 12.2406 6.98382C12.2406 7.58234 12.3821 8.06492 12.6976 8.35113C12.9543 8.60704 13.3264 8.77835 13.7833 8.77835C14.2402 8.77835 14.6123 8.60704 14.8711 8.35113C15.1845 8.06492 15.3563 7.61055 15.3563 6.98382C15.3563 6.35709 15.1834 5.92883 14.8711 5.61442C14.6123 5.35851 14.2413 5.1872 13.7833 5.1872ZM31.1151 3.13572H5.11948C4.03061 3.13781 3.1482 4.01732 3.1461 5.1026V10.858H33.1168V5.1026C33.1168 4.01836 32.2312 3.13572 31.1162 3.13572H31.1151ZM9.17943 9.54922C8.83674 9.06351 8.63762 8.43574 8.35152 7.98136C8.1786 7.66695 7.95223 7.52385 7.55084 7.52385H6.74808V8.43574C6.74808 8.86504 6.8927 9.40612 7.14946 9.54922H5.26096C5.52087 9.40716 5.66235 8.86504 5.66235 8.43574V5.55802C5.66235 5.1026 5.52087 4.58868 5.26096 4.41738H7.89354C8.55064 4.41738 8.97927 4.41738 9.32406 4.55943C9.86588 4.75894 10.152 5.27077 10.152 5.92779C10.152 6.5848 9.75269 7.06738 8.95202 7.23869C9.32301 7.40999 9.52318 7.77976 9.77889 8.26443C10.0095 8.75014 10.2379 9.23481 10.6959 9.54817H9.17839L9.17943 9.54922ZM15.5565 9.09275C15.0996 9.49072 14.4991 9.69128 13.7833 9.69128C13.0675 9.69128 12.4681 9.49072 12.0101 9.09275C11.4683 8.63629 11.0941 7.95316 11.0941 6.98486C11.0941 6.01657 11.4683 5.33135 12.0101 4.87698C12.467 4.50512 13.0686 4.30457 13.7833 4.30457C14.498 4.30457 15.0996 4.50512 15.5565 4.87698C16.1004 5.33135 16.4725 6.04373 16.4725 6.98486C16.4725 7.926 16.1004 8.63629 15.5565 9.09275ZM21.048 9.54922H17.1862C17.4429 9.37687 17.5865 8.89325 17.5865 8.43574V5.55802C17.5865 5.1308 17.4419 4.58868 17.1862 4.41738H19.0453C18.8158 4.58764 18.6733 5.1308 18.6733 5.55802V8.72194H19.6731C20.3323 8.72194 20.9317 8.606 21.2199 8.23727L21.047 9.54817L21.048 9.54922ZM25.8825 8.23832L25.6823 9.57638H21.8487C22.1055 9.40716 22.248 8.89325 22.248 8.43574V5.55802C22.248 5.1308 22.1055 4.58868 21.8487 4.41738H23.7079C23.4501 4.58764 23.3075 5.1308 23.3075 5.55802V8.72194H24.3367C24.9959 8.7491 25.5943 8.606 25.8825 8.23727V8.23832ZM28.7121 9.63487C28.0822 9.63487 27.2815 9.51997 26.7974 9.26406V8.03881C26.9095 8.20907 27.1684 8.40962 27.3392 8.49423C27.7594 8.72403 28.2331 8.84102 28.7121 8.8358C29.4268 8.8358 29.8575 8.52348 29.8575 8.06597C29.8575 7.52489 29.3136 7.43924 28.4846 7.32434C27.4272 7.18333 26.854 6.69866 26.854 5.84422C26.8833 4.9877 27.684 4.33381 28.8577 4.33381C29.6563 4.33381 30.2002 4.50407 30.5429 4.67538V5.78677C30.4297 5.58622 30.1719 5.44416 29.9141 5.33135C29.5735 5.2175 29.2161 5.159 28.8567 5.16109C28.2824 5.16109 27.9407 5.38985 27.9407 5.67292C27.9407 6.15863 28.3977 6.21504 29.3975 6.41454C30.3993 6.61614 30.9998 7.04336 30.9726 7.92704C30.9433 8.95278 30.1415 9.63696 28.7121 9.63696V9.63487ZM8.86608 51.0479C8.86608 50.5371 8.4647 50.3658 7.83695 50.3658H6.69253V51.7342H7.83695C8.46575 51.7342 8.86608 51.5336 8.86608 51.0479ZM13.4123 53.7282C13.8001 53.7324 14.1721 53.5788 14.4425 53.302C14.7286 53.0451 14.8711 52.6199 14.8711 52.0193C14.8711 51.4187 14.7286 50.9957 14.4425 50.7084C14.1847 50.4525 13.8399 50.3094 13.4123 50.3094C12.9543 50.3094 12.6095 50.4515 12.3528 50.7084C12.0688 50.9946 11.9241 51.4208 11.9241 52.0193C11.9241 52.6178 12.0688 53.0451 12.3528 53.302C12.6095 53.559 12.9533 53.7282 13.4123 53.7282ZM7.95118 5.24361H6.74703V6.69762H7.95118C8.60723 6.69762 9.03586 6.49915 9.03586 5.98419C9.03586 5.44207 8.60723 5.24257 7.95118 5.24257V5.24361ZM260.153 21.6962C260.153 20.9347 259.702 20.5994 258.787 20.5994H257.315V24.4549H257.9V22.7836H258.574L259.595 24.4549H260.251L259.15 22.7575C259.719 22.6875 260.152 22.3867 260.152 21.6962H260.153ZM257.901 22.2895V21.0956H258.701C259.109 21.0956 259.542 21.1833 259.542 21.6617C259.542 22.254 259.099 22.2895 258.602 22.2895H257.901ZM258.611 19.1851C256.765 19.1851 255.204 20.6005 255.204 22.5193C255.204 24.4381 256.765 25.8713 258.611 25.8713C260.456 25.8713 262 24.4559 262 22.5193C262 20.5827 260.438 19.1851 258.611 19.1851ZM258.61 25.3135C257.076 25.3135 255.879 24.1279 255.879 22.5193C255.879 20.9107 257.075 19.7429 258.61 19.7429C260.144 19.7429 261.325 20.9368 261.325 22.5193C261.325 24.1018 260.128 25.3135 258.61 25.3135Z" fill="white"/>
</g>
<defs>
<clipPath id="clip0_211_1142">
<rect width="262" height="59" fill="white"/>
</clipPath>
</defs>
</svg>
